<svg width="58" height="30" viewBox="0 0 58 30" fill="none" xmlns="http://www.w3.org/2000/svg">
<path fill-rule="evenodd" clip-rule="evenodd" d="M22.9176 14.3452C22.2165 15.5402 21.9644 17.1452 20.8094 17.9302C18.5129 19.4142 15.8875 20.3236 13.1585 20.5802C12.2438 20.6556 11.3244 20.6556 10.4098 20.5802C9.54602 20.3516 8.66317 20.2009 7.77202 20.1302C6.10263 20.1302 0.46402 20.3752 0.161412 22.4502C-0.342936 26.0202 4.22646 25.9202 7.02054 25.9202C9.86095 25.9664 12.6959 25.6573 15.4583 25.0002C18.1565 24.3052 19.7049 23.6602 21.4096 22.3452C21.7475 22.0852 22.8419 20.9252 22.8419 20.9252L22.9176 14.3452Z" fill="url(#paint0_linear)"/>
<path fill-rule="evenodd" clip-rule="evenodd" d="M22.9176 13.9702C22.2165 15.1652 22.0854 15.5002 20.9304 16.3002C18.7113 17.8002 17.9497 18.1752 15.2616 18.2752C13.0223 18.3602 10.329 18.2052 7.46435 18.4402C5.08382 18.6402 0.690955 20.5002 0.19165 22.2302C1.55339 29.5302 20.3656 23.4802 22.7713 21.3802C23.0941 21.1002 22.7713 20.0852 22.7713 20.0852L22.9176 13.9702Z" fill="url(#paint1_linear)"/>
<path fill-rule="evenodd" clip-rule="evenodd" d="M0.186585 22.2099C-0.257241 24.7099 0.045368 26.9999 1.61389 27.7599C3.58589 28.7199 3.92885 28.5599 6.15302 28.6949C11.6706 28.6949 14.5151 28.3649 19.5283 25.8199C21.0682 25.0118 22.387 23.8451 23.3715 22.4199L22.8268 20.9199C19.1097 24.5499 1.15998 29.3499 0.186585 22.2099Z" fill="url(#paint2_linear)"/>
<path fill-rule="evenodd" clip-rule="evenodd" d="M35.5212 20.4C35.5212 20.4 34.8 22.235 33.1407 22.695C32.3791 22.905 29.3682 24.235 29.4942 25.3C29.5195 25.54 31.5116 25.455 31.7184 26.465L31.9202 27.415L28.1022 27.445C26.0849 25.445 27.3659 23.755 28.5057 21.445L31.2696 19.91L32.2278 18.96L35.5212 20.4Z" fill="url(#paint3_linear)"/>
<path fill-rule="evenodd" clip-rule="evenodd" d="M48.5182 24.2749C48.6595 26.7449 48.8209 28.5649 49.7842 28.6699C50.5861 28.7599 51.5141 28.6399 53.5113 28.6699L53.6021 27.8599C53.3701 26.5849 51.8217 27.7049 51.2972 26.1749C51.1487 24.9894 51.3031 23.7859 51.7461 22.6749L51.9327 21.7549L51.5443 21.2949L48.5182 24.2749Z" fill="url(#paint4_linear)"/>
<path fill-rule="evenodd" clip-rule="evenodd" d="M42.1382 17.6299C42.1836 20.1699 41.5885 27.9449 43.0511 29.6849L43.2982 29.9299H47.2523C47.2523 27.7299 44.9273 28.9299 44.9828 27.2949C47.4591 24.7949 52.3362 21.9849 53.8038 19.6649C54.9487 17.8599 50.8685 18.7149 50.8685 18.7149L47.1615 18.6549L42.1382 17.6299Z" fill="url(#paint5_linear)"/>
<path fill-rule="evenodd" clip-rule="evenodd" d="M49.8749 10.31L49.7236 9.28499C48.3417 7.78499 47.9029 7.99499 46.5009 6.84499C46.1024 6.51499 45.7696 6.11499 45.4014 5.75499L44.6449 4.79999L44.7155 3.93999L43.7723 3.08499C45.3913 1.11499 48.6696 1.07999 52.4522 1.27999C54.5049 -0.630012 54.7369 1.40499 55.1353 2.68999C56.3054 3.99999 57.4956 5.62499 57.4956 7.44499L57.3393 8.25499L55.3976 10.165L53.1381 10.8L51.1913 10.775L49.8749 10.31Z" fill="url(#paint6_linear)"/>
<path fill-rule="evenodd" clip-rule="evenodd" d="M55.6497 9.7152C54.8428 8.6702 54.4746 7.0602 53.0321 5.9552C50.2935 4.1152 47.1262 3.3402 43.8782 3.0752C43.8705 3.71866 44.1103 4.34087 44.549 4.8152C45.3055 5.6602 46.3697 6.9452 47.333 7.5252C47.5549 7.66519 48.7301 8.6002 48.7301 8.6002L49.7942 9.6002L49.8648 10.5002L54.1468 11.1252L55.6497 9.7152Z" fill="url(#paint7_linear)"/>
<path fill-rule="evenodd" clip-rule="evenodd" d="M55.6498 9.71514C54.8428 8.67014 54.399 7.30014 52.9565 6.21514C50.2583 4.38514 48.9218 4.34514 45.8654 3.50014C41.7045 1.29514 44.312 6.06514 46.2285 8.00014C47.2372 9.00014 47.8979 9.29514 49.7035 9.87514L49.7842 10.7651L54.0712 11.3851L55.6498 9.71514Z" fill="url(#paint8_linear)"/>
<path fill-rule="evenodd" clip-rule="evenodd" d="M34.6436 5.63477L37.8563 5.81977C37.8563 5.81977 38.0732 5.69477 39.7123 6.48977C43.8782 8.52477 50.4348 13.2548 55.5035 8.84977C56.4288 8.14299 57.0474 7.11303 57.2334 5.96977C57.2334 5.96977 58.469 9.96977 57.3595 13.5698C56.2499 17.1698 54.8377 19.7748 51.0551 22.5298C50.2482 23.1198 49.4059 23.6548 48.5838 24.2148L44.8869 23.4198L41.7045 22.7748C39.1122 21.8698 36.661 21.1398 34.1393 20.0198L32.3287 19.0998C32.7288 16.2998 33.1306 13.5014 33.5341 10.7048C33.5004 9.70477 33.4685 8.6931 33.4382 7.66977C33.8417 6.99977 34.2402 6.31477 34.6436 5.63477Z" fill="url(#paint9_linear)"/>
<path fill-rule="evenodd" clip-rule="evenodd" d="M36.8426 5.57491L34.4318 5.29991C30.4929 4.75991 25.2628 7.74991 22.968 10.8449C19.9722 14.8899 22.0097 17.0299 22.2266 22.1799C22.3325 24.6799 21.7576 26.9049 22.731 28.9499L23.195 29.4499L26.9826 29.3749L26.9322 28.5499L26.3774 28.1949L25.515 27.7499L24.9249 27.4299C24.9249 27.4299 24.6172 27.3849 24.6172 27.1699C24.6172 26.3749 26.6951 24.6699 27.3508 24.3649C29.7212 23.2299 31.3856 22.2499 33.1609 19.6799C33.1609 19.6799 33.9981 17.8099 34.4117 16.9199C34.8252 16.0299 35.1077 13.4199 34.8 12.0049C34.2957 9.63491 33.4887 7.74991 35.6624 6.17991L36.8426 5.57491Z" fill="url(#paint10_linear)"/>
<path fill-rule="evenodd" clip-rule="evenodd" d="M42.108 17.7701L42.1686 28.1551C42.1686 28.1551 42.3703 29.7251 43.1268 29.8651C43.7317 29.947 44.3431 29.9704 44.9526 29.9351L44.0246 28.5551C43.2075 26.6651 44.5037 21.9301 47.3633 19.5551L48.0442 17.9951L47.2372 16.8001L45.9411 16.7051L44.2717 18.1001L43.3739 18.0451L42.108 17.7701Z" fill="url(#paint11_linear)"/>
<path fill-rule="evenodd" clip-rule="evenodd" d="M42.1383 18.2101L42.1837 18.1201V23.0201L38.9357 21.8401L42.1383 18.2101Z" fill="url(#paint12_linear)"/>
<path fill-rule="evenodd" clip-rule="evenodd" d="M41.9517 15.5752L42.0324 28.1552C42.0324 28.1552 42.2795 29.9002 43.0764 29.9202C43.8732 29.9402 44.8113 29.9202 44.8113 29.9202L43.8783 28.5552C43.3739 27.3852 43.6513 23.0952 46.7228 20.3452C47.6659 19.7302 48.8108 16.9552 49.3504 16.1302L47.1414 16.2802L45.8402 16.1902L44.2969 15.8802L43.2125 15.8502L41.9517 15.5752Z" fill="url(#paint13_linear)"/>
<path fill-rule="evenodd" clip-rule="evenodd" d="M37.2158 5.77979L36.0861 5.92479L34.9008 6.34479C34.7647 6.48479 34.6285 6.62979 34.4873 6.76979L33.9829 7.76979L33.8316 8.76979C33.8316 9.23979 33.8064 9.70979 33.7963 10.1798C33.8972 10.4548 33.9981 10.7348 34.0939 11.0098C36.0218 13.5778 38.8345 15.3537 41.997 15.9998C47.4188 17.1548 52.1848 16.9998 53.6828 14.8398C55.1807 12.6798 55.3068 9.18479 55.3068 9.18479C55.3068 9.18479 54.6461 10.1848 51.7158 11.1848C47.9685 12.4398 43.6462 9.53979 40.6555 7.18479C39.3391 6.33979 38.5221 5.83479 37.2158 5.77979Z" fill="url(#paint14_linear)"/>
<path fill-rule="evenodd" clip-rule="evenodd" d="M37.3621 5.56494C36.9838 5.61494 36.6661 5.85494 36.2929 5.90494L35.1076 6.32494C34.9664 6.46494 34.8302 6.60494 34.6941 6.74994L34.1897 7.74994L34.0384 8.74994C34.0384 9.21994 34.0384 9.68994 34.0031 10.1599L34.2956 10.9999C36.2224 13.5734 39.0375 15.3533 42.2038 15.9999C47.6255 17.1549 52.2151 16.7949 53.713 14.6499C55.2109 12.5049 55.5135 9.18494 55.5135 9.18494C55.5135 9.18494 54.9386 9.56994 51.9831 10.5549C48.261 11.8099 43.8782 9.52494 40.8522 7.17494C39.5308 6.31494 38.6683 5.61994 37.3621 5.56494Z" fill="url(#paint15_linear)"/>
<path fill-rule="evenodd" clip-rule="evenodd" d="M37.4529 5.57019C34.9765 5.36019 32.3741 4.57019 30.1953 6.31519C28.9748 8.27019 30.1953 11.1952 30.4727 13.3952C30.4727 13.3952 31.1536 16.2752 29.575 18.0802C28.2844 19.6655 27.0871 21.3232 25.989 23.0452C25.6007 23.6802 25.2073 24.3102 24.8139 24.9452C24.4369 25.7042 24.2881 26.5547 24.3852 27.3952C24.5466 28.0502 24.713 28.7002 24.8896 29.3552C25.7501 29.4527 26.6177 29.4727 27.4819 29.4152C28.6217 28.5152 25.8932 27.3802 25.3183 27.2102C25.6209 25.9552 25.8579 25.2802 27.4214 24.6402C33.2365 21.3602 36.2273 17.7452 34.9513 10.8502C34.8101 9.93019 34.447 9.27519 34.5176 8.09519C34.8 6.58019 36.2475 6.29519 37.4529 5.57019Z" fill="url(#paint16_linear)"/>
<path fill-rule="evenodd" clip-rule="evenodd" d="M37.3218 5.59982C34.8454 5.38982 32.248 4.59982 30.0642 6.34982C28.8437 8.30482 30.0642 11.2298 30.3416 13.4248C30.3416 13.4248 31.0225 16.3048 29.4489 18.1148C28.1553 19.6978 26.9579 21.3558 25.863 23.0798L24.7131 24.9998C24.3348 25.7602 24.1842 26.6122 24.2793 27.4548C24.4458 28.1048 24.6072 28.7598 24.7837 29.4148C25.6459 29.5123 26.5152 29.5324 27.3811 29.4748C28.5159 28.5748 25.7924 27.4398 25.2174 27.2698C25.515 26.0148 25.752 25.3398 27.3206 24.6948C33.1407 21.4148 36.1366 17.7998 34.8858 10.9098C34.7395 9.98982 34.3814 9.32982 34.452 8.14982C34.684 6.61482 36.1265 6.32982 37.3218 5.59982Z" fill="url(#paint17_linear)"/>
<path fill-rule="evenodd" clip-rule="evenodd" d="M44.317 4.11523L47.0758 5.18523C46.4 6.10023 45.1441 8.00023 43.7269 7.20023L44.317 4.11523Z" fill="#F17C0C"/>
<path fill-rule="evenodd" clip-rule="evenodd" d="M0.862439 21.815C3.58087 18.655 10.5913 19.685 14.1671 19.41C16.5678 19.225 19.261 18.685 21.1725 17.145C19.4477 18.9 16.5477 19.47 14.1974 19.695C10.9191 20 3.74731 19.15 1.27096 22.08C1.19715 22.1919 1.04586 22.2232 0.933048 22.15C0.820238 22.0768 0.788625 21.9269 0.862439 21.815Z" fill="#9F3D14"/>
<path fill-rule="evenodd" clip-rule="evenodd" d="M2.36036 23.0448C3.44976 21.0448 14.0158 21.6048 15.892 21.2598C18.3431 20.8048 19.4477 20.0948 21.4045 18.7598C19.483 20.3148 18.5146 20.9998 15.9475 21.5348C14.4345 21.8498 3.6868 21.7398 2.83445 23.2248C2.81298 23.3177 2.73912 23.3898 2.64511 23.4096C2.5511 23.4295 2.454 23.3935 2.39617 23.3174C2.33834 23.2413 2.33027 23.1389 2.37549 23.0548L2.36036 23.0448Z" fill="#9F3D14"/>
<path fill-rule="evenodd" clip-rule="evenodd" d="M3.79269 24.5851C7.36852 23.7051 6.81878 23.5851 10.8536 23.4851C15.5188 23.3851 17.7631 22.6701 21.8029 20.6201C18.0002 22.9651 15.3826 23.6951 10.8384 23.8651C6.85408 24.0151 7.38869 24.1501 3.8633 25.0601C3.7297 25.0845 3.6013 24.9974 3.57582 24.8651C3.56427 24.799 3.58114 24.7312 3.62234 24.678C3.66354 24.6248 3.72531 24.5911 3.79269 24.5851Z" fill="#9F3D14"/>
<path fill-rule="evenodd" clip-rule="evenodd" d="M14.5959 19.0002C13.0828 20.9452 14.0461 22.3052 15.6046 23.6902C13.5166 22.4702 12.7096 20.8102 14.2226 18.6902C14.319 18.5955 14.4743 18.5955 14.5706 18.6902C14.6546 18.7734 14.6653 18.9047 14.5959 19.0002Z" fill="#9F3D14"/>
<path fill-rule="evenodd" clip-rule="evenodd" d="M19.6696 17.7699C19.1652 19.6399 19.7452 20.1299 20.9708 21.5299C19.3266 20.4349 18.7819 19.5749 19.1955 17.6299C19.2345 17.5001 19.3722 17.4262 19.5031 17.4649C19.634 17.5035 19.7085 17.6401 19.6696 17.7699Z" fill="#9F3D14"/>
<path fill-rule="evenodd" clip-rule="evenodd" d="M11.2318 19.0399C9.84992 21.1199 10.7577 23.2649 12.4725 24.7449C11.407 24.1998 10.6243 23.2327 10.3186 22.0833C10.0129 20.9339 10.2128 19.7099 10.8687 18.7149C10.9227 18.6352 11.0185 18.5941 11.114 18.6097C11.2095 18.6253 11.287 18.6947 11.3124 18.7872C11.3377 18.8798 11.3062 18.9785 11.2318 19.0399Z" fill="#9F3D14"/>
<path fill-rule="evenodd" clip-rule="evenodd" d="M7.99393 19.175C6.48088 21.65 7.44923 23.175 8.97236 25.23C6.92471 23.355 6.16819 21.47 7.56523 18.9C7.64423 18.7948 7.79283 18.7699 7.90231 18.8436C8.01178 18.9173 8.04328 19.0634 7.97375 19.175H7.99393Z" fill="#9F3D14"/>
<path fill-rule="evenodd" clip-rule="evenodd" d="M4.59461 19.7551C3.48505 22.7151 3.65148 23.5401 6.36488 25.5001C3.24296 23.9001 3.13705 22.6101 4.12557 19.6451C4.17675 19.5243 4.31194 19.4616 4.43827 19.5001C4.55109 19.5295 4.62017 19.6422 4.59461 19.7551Z" fill="#9F3D14"/>
<path fill-rule="evenodd" clip-rule="evenodd" d="M17.2891 18.6051C16.6536 20.7501 17.1882 20.8651 18.2978 22.8451C16.6838 20.8751 16.2804 20.8451 16.8251 18.5351C16.8693 18.4138 16.994 18.3405 17.1226 18.3601C17.1802 18.3651 17.2325 18.3957 17.2648 18.4432C17.2971 18.4908 17.306 18.5503 17.2891 18.6051Z" fill="#9F3D14"/>
<defs>
<linearGradient id="paint0_linear" x1="0.121064" y1="25.9204" x2="22.9176" y2="25.9204" gradientUnits="userSpaceOnUse">
<stop stop-color="#D55521"/>
<stop offset="0.44" stop-color="#F6A548"/>
<stop offset="1" stop-color="#D25728"/>
</linearGradient>
<linearGradient id="paint1_linear" x1="0.19165" y1="25.7308" x2="22.9176" y2="25.7308" gradientUnits="userSpaceOnUse">
<stop stop-color="#CC5F07"/>
<stop offset="0.45" stop-color="#ED8400"/>
<stop offset="1" stop-color="#98230F"/>
</linearGradient>
<linearGradient id="paint2_linear" x1="-2.34064e-05" y1="28.695" x2="23.3866" y2="28.695" gradientUnits="userSpaceOnUse">
<stop stop-color="#AF4809"/>
<stop offset="1" stop-color="#BD220F"/>
</linearGradient>
<linearGradient id="paint3_linear" x1="27.033" y1="27.4472" x2="35.5212" y2="27.4472" gradientUnits="userSpaceOnUse">
<stop stop-color="#8B1207"/>
<stop offset="1" stop-color="#9A2312"/>
</linearGradient>
<linearGradient id="paint4_linear" x1="48.5182" y1="28.7095" x2="53.6021" y2="28.7095" gradientUnits="userSpaceOnUse">
<stop stop-color="#8B1207"/>
<stop offset="1" stop-color="#9A2312"/>
</linearGradient>
<linearGradient id="paint5_linear" x1="44.4447" y1="29.7929" x2="54.8281" y2="26.3892" gradientUnits="userSpaceOnUse">
<stop stop-color="#E26706"/>
<stop offset="1" stop-color="#FFD200"/>
</linearGradient>
<linearGradient id="paint6_linear" x1="42.4111" y1="8.91668" x2="54.8432" y2="13.0898" gradientUnits="userSpaceOnUse">
<stop stop-color="#F28C00"/>
<stop offset="0.43" stop-color="#E97600"/>
<stop offset="1" stop-color="#A23D08"/>
</linearGradient>
<linearGradient id="paint7_linear" x1="41.591" y1="10.255" x2="53.0082" y2="14.8742" gradientUnits="userSpaceOnUse">
<stop stop-color="#F28C00"/>
<stop offset="0.53" stop-color="#F49851"/>
<stop offset="1" stop-color="#A23B09"/>
</linearGradient>
<linearGradient id="paint8_linear" x1="41.5611" y1="10.4526" x2="53.1301" y2="14.8689" gradientUnits="userSpaceOnUse">
<stop stop-color="#F28C00"/>
<stop offset="0.42" stop-color="#ED7004"/>
<stop offset="1" stop-color="#913007"/>
</linearGradient>
<linearGradient id="paint9_linear" x1="32.3287" y1="24.2153" x2="57.8235" y2="24.2153" gradientUnits="userSpaceOnUse">
<stop stop-color="#A33A09"/>
<stop offset="0.5" stop-color="#ED8000"/>
<stop offset="1" stop-color="#FFD700"/>
</linearGradient>
<linearGradient id="paint10_linear" x1="26.5296" y1="33.8391" x2="43.0257" y2="26.4888" gradientUnits="userSpaceOnUse">
<stop stop-color="#E73629"/>
<stop offset="0.44" stop-color="#F18A00"/>
<stop offset="1" stop-color="#EA7B00"/>
</linearGradient>
<linearGradient id="paint11_linear" x1="44.0203" y1="33.3963" x2="51.9377" y2="29.8051" gradientUnits="userSpaceOnUse">
<stop stop-color="#DC7500"/>
<stop offset="0.5" stop-color="#F5D4B2"/>
<stop offset="1" stop-color="#F4A400"/>
</linearGradient>
<linearGradient id="paint12_linear" x1="41.4713" y1="24.201" x2="44.475" y2="22.7139" gradientUnits="userSpaceOnUse">
<stop stop-color="#C55C07"/>
<stop offset="0.47" stop-color="#C35907"/>
<stop offset="0.83" stop-color="#BB4F08"/>
<stop offset="1" stop-color="#B54809"/>
</linearGradient>
<linearGradient id="paint13_linear" x1="41.9517" y1="29.937" x2="49.3555" y2="29.937" gradientUnits="userSpaceOnUse">
<stop stop-color="#D66A03"/>
<stop offset="1" stop-color="#F3A000"/>
</linearGradient>
<linearGradient id="paint14_linear" x1="32.1571" y1="15.7207" x2="51.0017" y2="22.1965" gradientUnits="userSpaceOnUse">
<stop stop-color="#823304"/>
<stop offset="0.5" stop-color="#FFEEC8"/>
<stop offset="1" stop-color="#FFCC00"/>
</linearGradient>
<linearGradient id="paint15_linear" x1="32.413" y1="15.6586" x2="51.3157" y2="21.9909" gradientUnits="userSpaceOnUse">
<stop stop-color="#A64409"/>
<stop offset="0.47" stop-color="#E97600"/>
<stop offset="1" stop-color="#F8B900"/>
</linearGradient>
<linearGradient id="paint16_linear" x1="33.4119" y1="34.4706" x2="47.8087" y2="20.3695" gradientUnits="userSpaceOnUse">
<stop stop-color="#E74310"/>
<stop offset="0.63" stop-color="#FBD800"/>
<stop offset="1" stop-color="#EE8000"/>
</linearGradient>
<linearGradient id="paint17_linear" x1="33.2717" y1="34.5199" x2="47.688" y2="20.4905" gradientUnits="userSpaceOnUse">
<stop stop-color="#E74310"/>
<stop offset="0.63" stop-color="#FBD800"/>
<stop offset="1" stop-color="#EE8000"/>
</linearGradient>
</defs>
</svg>
