<svg width="195" height="200" viewBox="0 0 195 200" fill="none" xmlns="http://www.w3.org/2000/svg">
<g opacity="0.7">
<g opacity="0.7" filter="url(#filter0_d)">
<path d="M31.4338 20H163.67L171.552 138.979L97.5517 166L23.5517 138.979L31.4338 20Z" fill="black"/>
</g>
</g>
<path fill-rule="evenodd" clip-rule="evenodd" d="M13 0H183V139.745L98 166L13 139.745V0Z" fill="url(#paint0_linear)"/>
<g filter="url(#filter1_d)">
<path d="M42 108H153V122H97.9563H42V108Z" fill="black"/>
</g>
<path d="M42 108H153V122H97.9563H42V108Z" fill="white"/>
<path transform="translate(14,0)" d="M49.8509 119H51.6109L51.8309 115.78C51.8709 115.24 51.8309 114.58 51.8309 114.58H51.8509C51.8509 114.58 52.0909 115.33 52.2509 115.78L53.0009 117.85H54.5009L55.2509 115.78C55.4109 115.33 55.6509 114.58 55.6509 114.58H55.6709C55.6709 114.58 55.6309 115.24 55.6709 115.78L55.8909 119H57.6409L57.0609 111.85H55.1609L54.1209 114.87C53.9609 115.33 53.7609 116.05 53.7609 116.05H53.7409C53.7409 116.05 53.5409 115.33 53.3809 114.87L52.3409 111.85H50.4409L49.8509 119ZM59.8711 119H61.6311L63.6211 115.67C63.9011 115.2 64.2211 114.45 64.2211 114.45H64.2411C64.2411 114.45 64.1611 115.22 64.1611 115.67V119H65.9111V111.85H64.1411L62.1611 115.19C61.8811 115.66 61.5611 116.41 61.5611 116.41H61.5411C61.5411 116.41 61.6211 115.64 61.6211 115.19V111.85H59.8711V119ZM68.4102 119H70.1602V116.79H71.3802C72.7702 116.79 73.7102 115.75 73.7102 114.31C73.7102 112.87 72.7702 111.85 71.3802 111.85H68.4102V119ZM70.1602 115.29V113.35H71.0502C71.6302 113.35 71.9302 113.74 71.9302 114.31C71.9302 114.88 71.6302 115.29 71.0202 115.29H70.1602ZM81.0202 117.51C81.6102 116.41 81.8002 114.82 81.8002 113.68V113.35H83.2302V117.51H81.0202ZM78.4902 117.51V120.4H80.1002V119H84.2302V120.4H85.7802V117.51H84.9802V111.85H80.1402V113.54C80.1402 114.83 79.9602 116.24 79.2302 117.51H78.4902ZM87.358 115.38C87.358 117.48 88.938 119.12 91.098 119.12C93.258 119.12 94.838 117.48 94.838 115.38C94.838 113.33 93.258 111.73 91.098 111.73C88.938 111.73 87.358 113.33 87.358 115.38ZM89.168 115.38C89.168 114.21 90.028 113.33 91.098 113.33C92.168 113.33 93.028 114.21 93.028 115.38C93.028 116.6 92.168 117.52 91.098 117.52C90.028 117.52 89.168 116.6 89.168 115.38ZM96.6712 119H98.4312L98.6512 115.78C98.6912 115.24 98.6512 114.58 98.6512 114.58H98.6712C98.6712 114.58 98.9112 115.33 99.0712 115.78L99.8212 117.85H101.321L102.071 115.78C102.231 115.33 102.471 114.58 102.471 114.58H102.491C102.491 114.58 102.451 115.24 102.491 115.78L102.711 119H104.461L103.881 111.85H101.981L100.941 114.87C100.781 115.33 100.581 116.05 100.581 116.05H100.561C100.561 116.05 100.361 115.33 100.201 114.87L99.1612 111.85H97.2612L96.6712 119ZM106.301 115.38C106.301 117.48 107.881 119.12 110.041 119.12C112.201 119.12 113.781 117.48 113.781 115.38C113.781 113.33 112.201 111.73 110.041 111.73C107.881 111.73 106.301 113.33 106.301 115.38ZM108.111 115.38C108.111 114.21 108.971 113.33 110.041 113.33C111.111 113.33 111.971 114.21 111.971 115.38C111.971 116.6 111.111 117.52 110.041 117.52C108.971 117.52 108.111 116.6 108.111 115.38ZM115.895 119H118.525C119.945 119 121.245 118.43 121.245 116.87C121.245 116.24 120.945 115.51 120.125 115.26V115.24C120.665 114.93 120.955 114.32 120.955 113.72C120.955 112.49 119.955 111.85 118.525 111.85H115.895V119ZM117.645 114.62V113.35H118.515C118.985 113.35 119.175 113.63 119.175 113.96C119.175 114.3 118.985 114.62 118.545 114.62H117.645ZM117.645 117.5V116.02H118.705C119.215 116.02 119.455 116.35 119.455 116.75C119.455 117.15 119.205 117.5 118.695 117.5H117.645Z" fill="#E75D2E"/>
<g filter="url(#filter2_d)">
<path d="M53.559 72.037L42 63.1732V50.7178L68.5003 71.148L95 50.7178V100H83.4415V72.037L68.5003 84.0932L53.559 72.037ZM42 70.7178L54 79.7199V100H42.0005L42 70.7178Z" fill="black"/>
</g>
<path d="M53.559 72.037L42 63.1732V50.7178L68.5003 71.148L95 50.7178V100H83.4415V72.037L68.5003 84.0932L53.559 72.037ZM42 70.7178L54 79.7199V100H42.0005L42 70.7178Z" fill="white"/>
<g filter="url(#filter3_d)">
<path d="M42 45.3565L68.5 65.1388L116.772 27.6923V23L68.5 53.8694L42 42.413V45.3565Z" fill="black"/>
</g>
<path d="M42 45.3565L68.5 65.1388L116.772 27.6923V23L68.5 53.8694L42 42.413V45.3565Z" fill="white"/>
<g filter="url(#filter4_d)">
<path d="M83.4 23V38.8147L94.7368 31.9311V23H83.4Z" fill="black"/>
</g>
<path d="M83.4 23V38.8147L94.7368 31.9311V23H83.4Z" fill="white"/>
<g filter="url(#filter5_d)">
<path d="M106.494 42.1099V90.6838H100.244V100H153.111V90.6838H116.772V34.9888L106.494 42.1099Z" fill="black"/>
</g>
<path d="M106.494 42.1099V90.6838H100.244V100H153.111V90.6838H116.772V34.9888L106.494 42.1099Z" fill="white"/>
<g filter="url(#filter6_d)">
<path d="M122.295 42.7157V61.5C131.588 77.3119 136.234 85.2178 136.234 85.2178C136.234 85.2178 139.878 85.2178 147.165 85.2178L122.295 42.7157Z" fill="black"/>
</g>
<path d="M122.295 42.7157V61.5C131.588 77.3119 136.234 85.2178 136.234 85.2178C136.234 85.2178 139.878 85.2178 147.165 85.2178L122.295 42.7157Z" fill="white"/>
<g filter="url(#filter7_d)">
<path d="M122.295 28.2018V31.9445L153.111 84.1015V72.7406L122.295 28.2018Z" fill="black"/>
</g>
<path d="M122.295 28.2018V31.9445L153.111 84.1015V72.7406L122.295 28.2018Z" fill="white"/>
<defs>
<filter id="filter0_d" x="-0.448273" y="8" width="196" height="194" filterUnits="userSpaceOnUse" color-interpolation-filters="sRGB">
<feFlood flood-opacity="0" result="BackgroundImageFix"/>
<feColorMatrix in="SourceAlpha" type="matrix" values="0 0 0 0 0 0 0 0 0 0 0 0 0 0 0 0 0 0 127 0"/>
<feOffset dy="12"/>
<feGaussianBlur stdDeviation="12"/>
<feColorMatrix type="matrix" values="0 0 0 0 0.689538 0 0 0 0 0.17518 0 0 0 0 0 0 0 0 1 0"/>
<feBlend mode="normal" in2="BackgroundImageFix" result="effect1_dropShadow"/>
<feBlend mode="normal" in="SourceGraphic" in2="effect1_dropShadow" result="shape"/>
</filter>
<filter id="filter1_d" x="38" y="106" width="119" height="22" filterUnits="userSpaceOnUse" color-interpolation-filters="sRGB">
<feFlood flood-opacity="0" result="BackgroundImageFix"/>
<feColorMatrix in="SourceAlpha" type="matrix" values="0 0 0 0 0 0 0 0 0 0 0 0 0 0 0 0 0 0 127 0"/>
<feOffset dy="2"/>
<feGaussianBlur stdDeviation="2"/>
<feColorMatrix type="matrix" values="0 0 0 0 0.917647 0 0 0 0 0.407843 0 0 0 0 0.215686 0 0 0 1 0"/>
<feBlend mode="normal" in2="BackgroundImageFix" result="effect1_dropShadow"/>
<feBlend mode="normal" in="SourceGraphic" in2="effect1_dropShadow" result="shape"/>
</filter>
<filter id="filter2_d" x="38" y="48.7178" width="61" height="57.2822" filterUnits="userSpaceOnUse" color-interpolation-filters="sRGB">
<feFlood flood-opacity="0" result="BackgroundImageFix"/>
<feColorMatrix in="SourceAlpha" type="matrix" values="0 0 0 0 0 0 0 0 0 0 0 0 0 0 0 0 0 0 127 0"/>
<feOffset dy="2"/>
<feGaussianBlur stdDeviation="2"/>
<feColorMatrix type="matrix" values="0 0 0 0 0.917647 0 0 0 0 0.407843 0 0 0 0 0.215686 0 0 0 1 0"/>
<feBlend mode="normal" in2="BackgroundImageFix" result="effect1_dropShadow"/>
<feBlend mode="normal" in="SourceGraphic" in2="effect1_dropShadow" result="shape"/>
</filter>
<filter id="filter3_d" x="38" y="21" width="82.772" height="50.1388" filterUnits="userSpaceOnUse" color-interpolation-filters="sRGB">
<feFlood flood-opacity="0" result="BackgroundImageFix"/>
<feColorMatrix in="SourceAlpha" type="matrix" values="0 0 0 0 0 0 0 0 0 0 0 0 0 0 0 0 0 0 127 0"/>
<feOffset dy="2"/>
<feGaussianBlur stdDeviation="2"/>
<feColorMatrix type="matrix" values="0 0 0 0 0.917647 0 0 0 0 0.407843 0 0 0 0 0.215686 0 0 0 1 0"/>
<feBlend mode="normal" in2="BackgroundImageFix" result="effect1_dropShadow"/>
<feBlend mode="normal" in="SourceGraphic" in2="effect1_dropShadow" result="shape"/>
</filter>
<filter id="filter4_d" x="79.4" y="21" width="19.3368" height="23.8147" filterUnits="userSpaceOnUse" color-interpolation-filters="sRGB">
<feFlood flood-opacity="0" result="BackgroundImageFix"/>
<feColorMatrix in="SourceAlpha" type="matrix" values="0 0 0 0 0 0 0 0 0 0 0 0 0 0 0 0 0 0 127 0"/>
<feOffset dy="2"/>
<feGaussianBlur stdDeviation="2"/>
<feColorMatrix type="matrix" values="0 0 0 0 0.917647 0 0 0 0 0.407843 0 0 0 0 0.215686 0 0 0 1 0"/>
<feBlend mode="normal" in2="BackgroundImageFix" result="effect1_dropShadow"/>
<feBlend mode="normal" in="SourceGraphic" in2="effect1_dropShadow" result="shape"/>
</filter>
<filter id="filter5_d" x="96.2437" y="32.9888" width="60.8677" height="73.0111" filterUnits="userSpaceOnUse" color-interpolation-filters="sRGB">
<feFlood flood-opacity="0" result="BackgroundImageFix"/>
<feColorMatrix in="SourceAlpha" type="matrix" values="0 0 0 0 0 0 0 0 0 0 0 0 0 0 0 0 0 0 127 0"/>
<feOffset dy="2"/>
<feGaussianBlur stdDeviation="2"/>
<feColorMatrix type="matrix" values="0 0 0 0 0.917647 0 0 0 0 0.407843 0 0 0 0 0.215686 0 0 0 1 0"/>
<feBlend mode="normal" in2="BackgroundImageFix" result="effect1_dropShadow"/>
<feBlend mode="normal" in="SourceGraphic" in2="effect1_dropShadow" result="shape"/>
</filter>
<filter id="filter6_d" x="118.295" y="40.7157" width="32.8704" height="50.5021" filterUnits="userSpaceOnUse" color-interpolation-filters="sRGB">
<feFlood flood-opacity="0" result="BackgroundImageFix"/>
<feColorMatrix in="SourceAlpha" type="matrix" values="0 0 0 0 0 0 0 0 0 0 0 0 0 0 0 0 0 0 127 0"/>
<feOffset dy="2"/>
<feGaussianBlur stdDeviation="2"/>
<feColorMatrix type="matrix" values="0 0 0 0 0.917647 0 0 0 0 0.407843 0 0 0 0 0.215686 0 0 0 1 0"/>
<feBlend mode="normal" in2="BackgroundImageFix" result="effect1_dropShadow"/>
<feBlend mode="normal" in="SourceGraphic" in2="effect1_dropShadow" result="shape"/>
</filter>
<filter id="filter7_d" x="118.295" y="26.2018" width="38.8164" height="63.8997" filterUnits="userSpaceOnUse" color-interpolation-filters="sRGB">
<feFlood flood-opacity="0" result="BackgroundImageFix"/>
<feColorMatrix in="SourceAlpha" type="matrix" values="0 0 0 0 0 0 0 0 0 0 0 0 0 0 0 0 0 0 127 0"/>
<feOffset dy="2"/>
<feGaussianBlur stdDeviation="2"/>
<feColorMatrix type="matrix" values="0 0 0 0 0.917647 0 0 0 0 0.407843 0 0 0 0 0.215686 0 0 0 1 0"/>
<feBlend mode="normal" in2="BackgroundImageFix" result="effect1_dropShadow"/>
<feBlend mode="normal" in="SourceGraphic" in2="effect1_dropShadow" result="shape"/>
</filter>
<linearGradient id="paint0_linear" x1="98" y1="0" x2="98" y2="166" gradientUnits="userSpaceOnUse">
<stop stop-color="#F87522"/>
<stop offset="1" stop-color="#E75D2E"/>
</linearGradient>
</defs>
</svg>
