<svg width="70" height="69" viewBox="0 0 70 69" fill="none" xmlns="http://www.w3.org/2000/svg">
<g clip-path="url(#clip0)">
<g opacity="0.7" filter="url(#filter0_d)">
<path fill-rule="evenodd" clip-rule="evenodd" d="M7.5904 0H62.0405L65.286 57.2267L34.8154 68.3529L4.34485 57.2267L7.5904 0Z" fill="black" fill-opacity="0.01"/>
</g>
<path fill-rule="evenodd" clip-rule="evenodd" d="M0 0H70V57.542L35 68.3529L0 57.542V0Z" fill="url(#paint0_linear)"/>
<g filter="url(#filter1_d)">
<path fill-rule="evenodd" clip-rule="evenodd" d="M11.9412 44.4707H57.647V50.2354H34.982H11.9412V44.4707Z" fill="white"/>
</g>
<path d="M19.8209 49.2942H20.5456L20.6362 47.9683C20.6527 47.746 20.6362 47.4742 20.6362 47.4742H20.6445C20.6445 47.4742 20.7433 47.783 20.8092 47.9683L21.118 48.8207H21.7356L22.0445 47.9683C22.1104 47.783 22.2092 47.4742 22.2092 47.4742H22.2174C22.2174 47.4742 22.2009 47.746 22.2174 47.9683L22.308 49.2942H23.0286L22.7898 46.3501H22.0074L21.5792 47.5936C21.5133 47.783 21.4309 48.0795 21.4309 48.0795H21.4227C21.4227 48.0795 21.3404 47.783 21.2745 47.5936L20.8462 46.3501H20.0639L19.8209 49.2942ZM23.9469 49.2942H24.6716L25.491 47.923C25.6063 47.7295 25.7381 47.4207 25.7381 47.4207H25.7463C25.7463 47.4207 25.7134 47.7377 25.7134 47.923V49.2942H26.434V46.3501H25.7052L24.8899 47.7254C24.7746 47.9189 24.6428 48.2277 24.6428 48.2277H24.6346C24.6346 48.2277 24.6675 47.9107 24.6675 47.7254V46.3501H23.9469V49.2942ZM27.463 49.2942H28.1836V48.3842H28.6859C29.2583 48.3842 29.6454 47.956 29.6454 47.363C29.6454 46.7701 29.2583 46.3501 28.6859 46.3501H27.463V49.2942ZM28.1836 47.7665V46.9677H28.5501C28.7889 46.9677 28.9124 47.1283 28.9124 47.363C28.9124 47.5977 28.7889 47.7665 28.5377 47.7665H28.1836ZM32.6554 48.6807C32.8983 48.2277 32.9765 47.573 32.9765 47.1036V46.9677H33.5654V48.6807H32.6554ZM31.6136 48.6807V49.8707H32.2765V49.2942H33.9771V49.8707H34.6154V48.6807H34.2859V46.3501H32.293V47.046C32.293 47.5771 32.2189 48.1577 31.9183 48.6807H31.6136ZM35.2651 47.8036C35.2651 48.6683 35.9157 49.3436 36.8051 49.3436C37.6945 49.3436 38.3451 48.6683 38.3451 47.8036C38.3451 46.9595 37.6945 46.3007 36.8051 46.3007C35.9157 46.3007 35.2651 46.9595 35.2651 47.8036ZM36.0104 47.8036C36.0104 47.3218 36.3645 46.9595 36.8051 46.9595C37.2457 46.9595 37.5998 47.3218 37.5998 47.8036C37.5998 48.306 37.2457 48.6848 36.8051 48.6848C36.3645 48.6848 36.0104 48.306 36.0104 47.8036ZM39.0999 49.2942H39.8246L39.9152 47.9683C39.9317 47.746 39.9152 47.4742 39.9152 47.4742H39.9234C39.9234 47.4742 40.0222 47.783 40.0881 47.9683L40.397 48.8207H41.0146L41.3234 47.9683C41.3893 47.783 41.4881 47.4742 41.4881 47.4742H41.4964C41.4964 47.4742 41.4799 47.746 41.4964 47.9683L41.587 49.2942H42.3075L42.0687 46.3501H41.2864L40.8581 47.5936C40.7922 47.783 40.7099 48.0795 40.7099 48.0795H40.7017C40.7017 48.0795 40.6193 47.783 40.5534 47.5936L40.1252 46.3501H39.3428L39.0999 49.2942ZM43.0653 47.8036C43.0653 48.6683 43.7159 49.3436 44.6053 49.3436C45.4947 49.3436 46.1453 48.6683 46.1453 47.8036C46.1453 46.9595 45.4947 46.3007 44.6053 46.3007C43.7159 46.3007 43.0653 46.9595 43.0653 47.8036ZM43.8106 47.8036C43.8106 47.3218 44.1647 46.9595 44.6053 46.9595C45.0459 46.9595 45.4 47.3218 45.4 47.8036C45.4 48.306 45.0459 48.6848 44.6053 48.6848C44.1647 48.6848 43.8106 48.306 43.8106 47.8036ZM47.0154 49.2942H48.0983C48.683 49.2942 49.2183 49.0595 49.2183 48.4171C49.2183 48.1577 49.0948 47.8571 48.7572 47.7542V47.746C48.9795 47.6183 49.0989 47.3671 49.0989 47.1201C49.0989 46.6136 48.6872 46.3501 48.0983 46.3501H47.0154V49.2942ZM47.736 47.4907V46.9677H48.0942C48.2878 46.9677 48.366 47.083 48.366 47.2189C48.366 47.3589 48.2878 47.4907 48.1066 47.4907H47.736ZM47.736 48.6765V48.0671H48.1725C48.3825 48.0671 48.4813 48.203 48.4813 48.3677C48.4813 48.5324 48.3783 48.6765 48.1683 48.6765H47.736Z" fill="#E75D2E"/>
<g filter="url(#filter2_d)">
<path fill-rule="evenodd" clip-rule="evenodd" d="M16.7007 29.6625L11.9412 26.0127L11.9414 20.884L22.853 29.2965L33.7647 20.884V41.1767H29.0053V29.6625L22.853 34.6268L16.7007 29.6625ZM11.9412 29.1193L16.8823 32.826V41.1767H11.9414L11.9412 29.1193Z" fill="white"/>
</g>
<g filter="url(#filter3_d)">
<path fill-rule="evenodd" clip-rule="evenodd" d="M11.9412 18.6763L22.8529 26.822L42.7296 11.4028V9.4707L22.8529 22.1816L11.9412 17.4643V18.6763Z" fill="white"/>
</g>
<g filter="url(#filter4_d)">
<path fill-rule="evenodd" clip-rule="evenodd" d="M28.9883 9.4707V15.9826L33.6564 13.1482V9.4707H28.9883Z" fill="white"/>
</g>
<g filter="url(#filter5_d)">
<path fill-rule="evenodd" clip-rule="evenodd" d="M38.4974 17.3394V37.3404H35.9238V41.1765H57.6929V37.3404H42.7296V14.4072L38.4974 17.3394Z" fill="white"/>
</g>
<g filter="url(#filter6_d)">
<path fill-rule="evenodd" clip-rule="evenodd" d="M45.0038 17.5889V25.3236L50.7433 35.0897H55.2445L45.0038 17.5889Z" fill="white"/>
</g>
<g filter="url(#filter7_d)">
<path fill-rule="evenodd" clip-rule="evenodd" d="M45.0038 11.6125V13.1537L57.6929 34.6301V29.9521L45.0038 11.6125Z" fill="white"/>
</g>
</g>
<defs>
<filter id="filter0_d" x="-5.65515" y="-5" width="80.9412" height="88.3529" filterUnits="userSpaceOnUse" color-interpolation-filters="sRGB">
<feFlood flood-opacity="0" result="BackgroundImageFix"/>
<feColorMatrix in="SourceAlpha" type="matrix" values="0 0 0 0 0 0 0 0 0 0 0 0 0 0 0 0 0 0 127 0"/>
<feOffset dy="5"/>
<feGaussianBlur stdDeviation="5"/>
<feColorMatrix type="matrix" values="0 0 0 0 0.689538 0 0 0 0 0.17518 0 0 0 0 0 0 0 0 1 0"/>
<feBlend mode="normal" in2="BackgroundImageFix" result="effect1_dropShadow"/>
<feBlend mode="normal" in="SourceGraphic" in2="effect1_dropShadow" result="shape"/>
</filter>
<filter id="filter1_d" x="9.94116" y="43.4707" width="49.7059" height="9.76471" filterUnits="userSpaceOnUse" color-interpolation-filters="sRGB">
<feFlood flood-opacity="0" result="BackgroundImageFix"/>
<feColorMatrix in="SourceAlpha" type="matrix" values="0 0 0 0 0 0 0 0 0 0 0 0 0 0 0 0 0 0 127 0"/>
<feOffset dy="1"/>
<feGaussianBlur stdDeviation="1"/>
<feColorMatrix type="matrix" values="0 0 0 0 0.917647 0 0 0 0 0.407843 0 0 0 0 0.215686 0 0 0 1 0"/>
<feBlend mode="normal" in2="BackgroundImageFix" result="effect1_dropShadow"/>
<feBlend mode="normal" in="SourceGraphic" in2="effect1_dropShadow" result="shape"/>
</filter>
<filter id="filter2_d" x="9.94116" y="19.884" width="25.8235" height="24.2927" filterUnits="userSpaceOnUse" color-interpolation-filters="sRGB">
<feFlood flood-opacity="0" result="BackgroundImageFix"/>
<feColorMatrix in="SourceAlpha" type="matrix" values="0 0 0 0 0 0 0 0 0 0 0 0 0 0 0 0 0 0 127 0"/>
<feOffset dy="1"/>
<feGaussianBlur stdDeviation="1"/>
<feColorMatrix type="matrix" values="0 0 0 0 0.917647 0 0 0 0 0.407843 0 0 0 0 0.215686 0 0 0 1 0"/>
<feBlend mode="normal" in2="BackgroundImageFix" result="effect1_dropShadow"/>
<feBlend mode="normal" in="SourceGraphic" in2="effect1_dropShadow" result="shape"/>
</filter>
<filter id="filter3_d" x="9.94116" y="8.4707" width="34.7885" height="21.3513" filterUnits="userSpaceOnUse" color-interpolation-filters="sRGB">
<feFlood flood-opacity="0" result="BackgroundImageFix"/>
<feColorMatrix in="SourceAlpha" type="matrix" values="0 0 0 0 0 0 0 0 0 0 0 0 0 0 0 0 0 0 127 0"/>
<feOffset dy="1"/>
<feGaussianBlur stdDeviation="1"/>
<feColorMatrix type="matrix" values="0 0 0 0 0.917647 0 0 0 0 0.407843 0 0 0 0 0.215686 0 0 0 1 0"/>
<feBlend mode="normal" in2="BackgroundImageFix" result="effect1_dropShadow"/>
<feBlend mode="normal" in="SourceGraphic" in2="effect1_dropShadow" result="shape"/>
</filter>
<filter id="filter4_d" x="26.9883" y="8.4707" width="8.6681" height="10.5119" filterUnits="userSpaceOnUse" color-interpolation-filters="sRGB">
<feFlood flood-opacity="0" result="BackgroundImageFix"/>
<feColorMatrix in="SourceAlpha" type="matrix" values="0 0 0 0 0 0 0 0 0 0 0 0 0 0 0 0 0 0 127 0"/>
<feOffset dy="1"/>
<feGaussianBlur stdDeviation="1"/>
<feColorMatrix type="matrix" values="0 0 0 0 0.917647 0 0 0 0 0.407843 0 0 0 0 0.215686 0 0 0 1 0"/>
<feBlend mode="normal" in2="BackgroundImageFix" result="effect1_dropShadow"/>
<feBlend mode="normal" in="SourceGraphic" in2="effect1_dropShadow" result="shape"/>
</filter>
<filter id="filter5_d" x="33.9238" y="13.4072" width="25.7691" height="30.7693" filterUnits="userSpaceOnUse" color-interpolation-filters="sRGB">
<feFlood flood-opacity="0" result="BackgroundImageFix"/>
<feColorMatrix in="SourceAlpha" type="matrix" values="0 0 0 0 0 0 0 0 0 0 0 0 0 0 0 0 0 0 127 0"/>
<feOffset dy="1"/>
<feGaussianBlur stdDeviation="1"/>
<feColorMatrix type="matrix" values="0 0 0 0 0.917647 0 0 0 0 0.407843 0 0 0 0 0.215686 0 0 0 1 0"/>
<feBlend mode="normal" in2="BackgroundImageFix" result="effect1_dropShadow"/>
<feBlend mode="normal" in="SourceGraphic" in2="effect1_dropShadow" result="shape"/>
</filter>
<filter id="filter6_d" x="43.0038" y="16.5889" width="14.2407" height="21.5009" filterUnits="userSpaceOnUse" color-interpolation-filters="sRGB">
<feFlood flood-opacity="0" result="BackgroundImageFix"/>
<feColorMatrix in="SourceAlpha" type="matrix" values="0 0 0 0 0 0 0 0 0 0 0 0 0 0 0 0 0 0 127 0"/>
<feOffset dy="1"/>
<feGaussianBlur stdDeviation="1"/>
<feColorMatrix type="matrix" values="0 0 0 0 0.917647 0 0 0 0 0.407843 0 0 0 0 0.215686 0 0 0 1 0"/>
<feBlend mode="normal" in2="BackgroundImageFix" result="effect1_dropShadow"/>
<feBlend mode="normal" in="SourceGraphic" in2="effect1_dropShadow" result="shape"/>
</filter>
<filter id="filter7_d" x="43.0038" y="10.6125" width="16.6891" height="27.0175" filterUnits="userSpaceOnUse" color-interpolation-filters="sRGB">
<feFlood flood-opacity="0" result="BackgroundImageFix"/>
<feColorMatrix in="SourceAlpha" type="matrix" values="0 0 0 0 0 0 0 0 0 0 0 0 0 0 0 0 0 0 127 0"/>
<feOffset dy="1"/>
<feGaussianBlur stdDeviation="1"/>
<feColorMatrix type="matrix" values="0 0 0 0 0.917647 0 0 0 0 0.407843 0 0 0 0 0.215686 0 0 0 1 0"/>
<feBlend mode="normal" in2="BackgroundImageFix" result="effect1_dropShadow"/>
<feBlend mode="normal" in="SourceGraphic" in2="effect1_dropShadow" result="shape"/>
</filter>
<linearGradient id="paint0_linear" x1="0" y1="0" x2="0" y2="68.3529" gradientUnits="userSpaceOnUse">
<stop stop-color="#F87522"/>
<stop offset="1" stop-color="#E75D2E"/>
</linearGradient>
<clipPath id="clip0">
<rect width="70" height="69" fill="white"/>
</clipPath>
</defs>
</svg>
