<svg version="1.1" xmlns="http://www.w3.org/2000/svg" xmlns:xlink="http://www.w3.org/1999/xlink">
	<symbol id="home" viewBox="0 0 24 24">
		<path fill-rule="evenodd" clip-rule="evenodd" d="M9.887 23.9928H2.85575V12.6959H0.00579834L4.262 8.18934V1.44591H8.48075V3.72244L11.9964 0L23.987 12.6959H21.137V23.9928H14.1058V16.9147H9.887V23.9928ZM7.0745 2.85216H5.66825V6.70041L7.0745 5.21142V2.85216ZM11.9964 2.04806L20.7245 11.2897H19.7308V22.5865H15.512V15.5084H8.48075V22.5865H4.262V11.2897H3.2682L11.9964 2.04806ZM14.1058 12.6959V8.47716H9.887V12.6959H14.1058ZM12.6995 11.2897H11.2933V9.88341H12.6995V11.2897Z"/>
	</symbol>
	<symbol id="phone" viewBox="0 0 24 25">
		<path fill-rule="evenodd" clip-rule="evenodd" d="M16.1749 12.6049C16.4794 12.3022 16.971 12.3022 17.2754 12.6049L22.7935 18.1229C23.0961 18.4274 23.0961 18.919 22.7935 19.2234L18.9301 23.0868C18.4476 23.5423 17.8726 23.8884 17.2442 24.1015C16.8749 24.228 16.4874 24.294 16.0969 24.2966C15.0751 24.2731 14.1065 23.8367 13.412 23.0868L1.24422 10.9893C1.17446 10.9246 1.10719 10.8574 1.04256 10.7876C-0.369832 9.26385 -0.27954 6.88361 1.24422 5.47122L5.14666 1.56878C5.45109 1.26615 5.9427 1.26615 6.24714 1.56878L11.7574 7.10244C12.06 7.40688 12.06 7.89849 11.7574 8.20293L8.99446 10.9659L13.412 15.3834L16.1749 12.6049ZM14.6888 22.147C15.6048 22.9656 17.0109 22.8867 17.8296 21.9707L21.1467 18.6771L16.7291 14.2595L14.5203 16.4683L14.5191 16.4695C13.9091 17.0788 12.9208 17.0782 12.3115 16.4683L7.89397 12.0507L7.89275 12.0495C7.28348 11.4396 7.28402 10.4512 7.89397 9.84195L10.1028 7.64098L5.68519 3.22341L2.3447 6.53268C2.28573 6.58566 2.22968 6.64176 2.1767 6.70068C1.35568 7.61449 1.43085 9.02093 2.3447 9.84195L8.44031 15.8985L14.5125 21.9707C14.5679 22.0327 14.6268 22.0916 14.6888 22.147Z"/>
		<path d="M17.7216 7.41531L14 3.70773L17.7216 0L18.8397 1.11398L17.0663 2.8806H20.9986C22.3091 2.8806 23.3752 3.94064 23.3752 5.24375L23.38 9.378L21.7988 9.38L21.794 5.24468C21.794 4.80938 21.4372 4.45609 20.9986 4.45609H16.9873L18.8397 6.30148L17.7216 7.41531Z"/>
	</symbol>
	<symbol id="letter" viewBox="0 0 24 18">
		<path fill-rule="evenodd" clip-rule="evenodd" d="M23.25 0H0.75C0.336 0 0 0.336 0 0.75V17.25C0 17.664 0.336 18 0.75 18H23.25C23.664 18 24 17.664 24 17.25V0.75C24 0.336 23.664 0 23.25 0ZM21.1117 1.5L12 8.78925L2.88825 1.5H21.1117ZM1.5 2.31V16.5H22.5V2.31L12.4688 10.3358C12.3315 10.4453 12.1657 10.5 12 10.5C11.8343 10.5 11.6685 10.4452 11.5312 10.335L1.5 2.31Z"/>
	</symbol>
	<symbol id="clock" viewBox="0 0 24 25">
		<path fill-rule="evenodd" clip-rule="evenodd" d="M23.1683 1.44461H18.4029V0.727273C18.4029 0.325697 18.0772 0 17.6756 0C17.274 0 16.9483 0.325697 16.9483 0.727273V1.44461H12.6995V0.727273C12.6995 0.325697 12.3738 0 11.9722 0C11.5706 0 11.245 0.325697 11.245 0.727273V1.44461H7.17671V0.727273C7.17671 0.325697 6.85101 0 6.44944 0C6.04786 0 5.72216 0.325697 5.72216 0.727273V1.44461H0.776223C0.374647 1.44461 0.0489502 1.7703 0.0489502 2.17188V18.6048C0.0489502 19.0064 0.374647 19.3321 0.776223 19.3321H5.23998C5.95525 22.3884 8.70119 24.6719 11.9722 24.6719C15.2433 24.6719 17.9892 22.3882 18.7045 19.3321H23.1682C23.5698 19.3321 23.8955 19.0064 23.8955 18.6048V2.17188C23.8956 1.7703 23.57 1.44461 23.1683 1.44461ZM5.72216 2.89915V3.55636C5.72216 3.95794 6.04786 4.28364 6.44944 4.28364C6.85101 4.28364 7.17671 3.95794 7.17671 3.55636V2.89915H11.2449V3.55636C11.2449 3.95794 11.5706 4.28364 11.9722 4.28364C12.3738 4.28364 12.6995 3.95794 12.6995 3.55636V2.89915H16.9483V3.55636C16.9483 3.95794 17.274 4.28364 17.6756 4.28364C18.0772 4.28364 18.4029 3.95794 18.4029 3.55636V2.89915H22.4411V5.87321H1.5035V2.89915H5.72216ZM6.51125 17.7564C6.51125 20.7675 8.96107 23.2173 11.9722 23.2173C14.9835 23.2173 17.4332 20.7676 17.4332 17.7564C17.4332 14.7451 14.9834 12.2954 11.9722 12.2954C8.96107 12.2954 6.51125 14.7452 6.51125 17.7564ZM18.8847 17.8776C18.885 17.8611 18.8856 17.8447 18.8861 17.8283V17.8283C18.8869 17.8044 18.8877 17.7805 18.8877 17.7564C18.8877 13.9432 15.7854 10.8408 11.9722 10.8408C8.15901 10.8408 5.05671 13.9432 5.05671 17.7564C5.05671 17.7796 5.0575 17.8026 5.05829 17.8257C5.05888 17.8429 5.05948 17.8602 5.05974 17.8776H1.50337V7.32788H22.441V17.8776H18.8847ZM12.6995 14.4216V17.9399L14.158 19.3987C14.442 19.6827 14.442 20.1432 14.158 20.4272C14.016 20.5691 13.8298 20.6401 13.6437 20.6401C13.4576 20.6401 13.2715 20.5691 13.1294 20.4272L11.4579 18.7555C11.3216 18.619 11.245 18.4341 11.245 18.2412V14.4216C11.245 14.02 11.5706 13.6943 11.9722 13.6943C12.3738 13.6943 12.6995 14.02 12.6995 14.4216Z"/>
	</symbol>
	<symbol id="keys" viewBox="0 0 50 50">
		<path fill-rule="evenodd" clip-rule="evenodd" d="M39.4271 25.5809L49.5663 35.6287C49.8438 35.9038 50 36.2784 50 36.6692V40.8125C50 41.6215 49.3441 42.2773 48.5352 42.2773H40.1511C39.3421 42.2773 38.6862 41.6215 38.6862 40.8125V38.1341H36.0079C35.1989 38.1341 34.5431 37.4782 34.5431 36.6692V33.1328L33.2098 31.7995C31.0335 32.5692 28.6357 32.5878 26.4648 31.8579V45.6055C26.4648 45.9939 26.3104 46.3666 26.0358 46.6412L23.1062 49.5709C22.5341 50.143 21.6065 50.1429 21.0346 49.5709L15.1752 43.7115C14.6031 43.1395 14.6031 42.212 15.1752 41.6399L17.069 39.7461L15.1752 37.8521C14.6031 37.2801 14.6031 36.3526 15.1752 35.7806L17.6758 33.28V31.3956C14.5759 29.9215 12.4154 26.9916 11.9231 23.6328H1.46484C0.655859 23.6328 0 22.977 0 22.168V1.46484C0 0.655859 0.655859 0 1.46484 0H27.9297C28.3182 0 28.6907 0.154297 28.9655 0.429004L34.8249 6.28838C35.0996 6.56309 35.254 6.93574 35.254 7.32422V13.4902C39.3636 16.0777 41.0098 21.1219 39.4271 25.5809ZM27.3229 2.92969H2.92969V20.7031H11.9215C12.5657 16.2191 16.1215 12.6634 20.6055 12.0191V8.98438H19.1406C18.3316 8.98438 17.6758 8.32852 17.6758 7.51953C17.6758 6.71055 18.3316 6.05469 19.1406 6.05469H25C25.809 6.05469 26.4648 6.71055 26.4648 7.51953C26.4648 8.32852 25.809 8.98438 25 8.98438H23.5352V12.019C24.3697 12.139 25.1722 12.3598 25.9297 12.6687C27.9963 11.8274 30.2375 11.7 32.3242 12.2317V7.93096L27.3229 2.92969ZM23.5352 30.4188V44.9987L22.0703 46.4636L18.2825 42.6758L20.1764 40.7819C20.7484 40.2099 20.7484 39.2824 20.1764 38.7104L18.2825 36.8164L20.1764 34.9226C20.4511 34.6479 20.6055 34.2752 20.6055 33.8867V30.4188C20.6055 29.799 20.2153 29.2462 19.6313 29.0386C16.7095 27.9999 14.7464 25.2392 14.7461 22.1687V22.168V22.1674C14.7464 18.6306 17.2666 15.6717 20.6055 14.9912V19.2383C20.6055 20.0473 21.2613 20.7031 22.0703 20.7031C22.8793 20.7031 23.5352 20.0473 23.5352 19.2383V14.9911C26.8742 15.6716 29.3945 18.6309 29.3945 22.168C29.3945 25.2388 27.4313 27.9999 24.5094 29.0386C23.9253 29.2462 23.5352 29.7989 23.5352 30.4188ZM41.6159 39.3476H47.0703V37.2798L36.6678 26.9711C36.2258 26.533 36.1088 25.8636 36.376 25.3016C38.7934 20.2177 34.8501 14.4559 29.2575 14.8621C31.1491 16.7233 32.3242 19.3108 32.3242 22.168C32.3242 24.9573 31.1715 27.5623 29.25 29.4474C30.4998 29.5308 31.7736 29.2991 32.9268 28.7509C33.4864 28.4847 34.1532 28.5996 34.5915 29.038L37.0437 31.4901C37.3184 31.7649 37.4728 32.1375 37.4728 32.526V35.2043H40.1511C40.9601 35.2043 41.6159 35.8602 41.6159 36.6691V39.3476Z"/>
	</symbol>
	<symbol id="home-mini" viewBox="0 0 22 21">
		<path d="M21.6306 9.3193L11.7599 0.325172C11.3266 -0.069668 10.6733 -0.069625 10.2402 0.325129L0.369447 9.31935C0.0223886 9.6356 -0.092252 10.1229 0.0773027 10.5607C0.2469 10.9985 0.65983 11.2813 1.12935 11.2813H2.70587V20.2928C2.70587 20.6501 2.99557 20.9398 3.35285 20.9398H8.76322C9.12051 20.9398 9.4102 20.6501 9.4102 20.2928V14.8213H12.59V20.2928C12.59 20.6501 12.8797 20.9398 13.237 20.9398H18.6471C19.0043 20.9398 19.294 20.6502 19.294 20.2928V11.2813H20.8709C21.3403 11.2813 21.7533 10.9984 21.9229 10.5607C22.0923 10.1228 21.9776 9.6356 21.6306 9.3193Z"/>
		<path d="M19.125 1.32043H14.78L19.772 5.85948V1.96737C19.772 1.61009 19.4823 1.32043 19.125 1.32043Z"/>
	</symbol>
	<symbol id="calendar" viewBox="0 0 38 38">
		<path fill-rule="evenodd" clip-rule="evenodd" d="M38 2.22656H33.4727V0H31.2461V2.22656H26.793V0H24.5664V2.22656H20.1133V0H17.8867V2.22656H13.4336V0H11.207V2.22656H6.75391V0H4.52734V2.22656H0V38H38V2.22656ZM2.22656 4.45312H4.52734V6.67969H6.75391V4.45312H11.207V6.67969H13.4336V4.45312H17.8867V6.67969H20.1133V4.45312H24.5664V6.67969H26.793V4.45312H31.2461V6.67969H33.4727V4.45312H35.7734V8.90625H2.22656V4.45312ZM2.22656 11.1328V35.7734H35.7734V11.1328H2.22656Z"/>
		<path d="M20.1133 15.6602H24.5664V17.8867H20.1133V15.6602Z"/>
		<path d="M20.1133 22.3398H24.5664V24.5664H20.1133V22.3398Z"/>
		<path d="M13.4336 22.3398H17.8867V24.5664H13.4336V22.3398Z"/>
		<path d="M6.75391 22.3398H11.207V24.5664H6.75391V22.3398Z"/>
		<path d="M26.793 15.6602H31.2461V17.8867H26.793V15.6602Z"/>
		<path d="M26.793 22.3398H31.2461V24.5664H26.793V22.3398Z"/>
		<path d="M20.1133 29.0195H24.5664V31.2461H20.1133V29.0195Z"/>
		<path d="M13.4336 29.0195H17.8867V31.2461H13.4336V29.0195Z"/>
		<path d="M6.75391 29.0195H11.207V31.2461H6.75391V29.0195Z"/>
		<path d="M26.793 29.0195H31.2461V31.2461H26.793V29.0195Z"/>
	</symbol>
	<symbol id="review" viewBox="0 0 40 40">
		<path fill-rule="evenodd" clip-rule="evenodd" d="M29.1736 5.41473L31.7209 0.00427246L34.2673 5.4126L39.9854 6.24847L35.8374 10.3165L36.7935 16.1487L31.7227 13.4308L26.6699 16.1569L27.6288 10.3091L26.0092 8.68896L24.3396 10.3165L25.3177 16.131L20.1691 13.4241L15.0201 16.131L15.9985 10.3165L14.3185 8.67889L12.6385 10.3165L13.6166 16.131L8.46802 13.4241L3.31909 16.131L4.29596 10.3262L0 6.24786L5.88104 5.40955L8.46802 0L11.0556 5.41138L14.3185 5.88562L17.5815 5.41138L20.1691 0L22.757 5.41138L26.0178 5.88531L29.1736 5.41473ZM8.46802 10.7803L10.5255 11.8619L10.1273 9.49615L11.7834 7.88208L9.48334 7.54791L8.46802 5.4245L7.45178 7.54974L5.11993 7.88208L6.8103 9.48639L6.41052 11.8619L8.46802 10.7803ZM22.2266 11.8619L20.1691 10.7803L18.1116 11.8619L18.5098 9.49615L16.8536 7.88208L19.1537 7.54791L20.1691 5.4245L21.1844 7.54791L23.4845 7.88208L21.8286 9.49615L22.2266 11.8619ZM31.7191 10.7736L33.7167 11.8442L33.3316 9.49615L34.978 7.88147L32.6852 7.54669L31.7209 5.49805L30.7574 7.54456L28.5092 7.87994L30.1324 9.50348L29.7501 11.8359L31.7191 10.7736ZM20.0082 18.938C22.5891 18.938 24.6887 21.0376 24.6887 23.6185C24.6887 26.199 22.5891 28.299 20.0082 28.299C17.4274 28.299 15.3278 26.199 15.3278 23.6185C15.3278 21.0376 17.4274 18.938 20.0082 18.938ZM31.7093 30.639C30.0003 30.639 28.3359 31.1816 26.9583 32.1603C25.5096 29.8434 22.9361 28.299 20.0082 28.299C17.0801 28.299 14.5065 29.8434 13.0582 32.1603C11.6803 31.1816 10.0159 30.639 8.30688 30.639C10.8878 30.639 12.9874 28.5394 12.9874 25.9586C12.9874 23.3777 10.8878 21.2781 8.30688 21.2781C5.72601 21.2781 3.6264 23.3777 3.6264 25.9586C3.6264 28.5394 5.72601 30.639 8.30688 30.639C3.74756 30.639 0.038147 34.3134 0.038147 38.83V40H39.978V38.83C39.978 34.3134 36.2689 30.639 31.7093 30.639ZM31.7093 30.639C34.2902 30.639 36.3898 28.5394 36.3898 25.9586C36.3898 23.3777 34.2902 21.2781 31.7093 21.2781C29.1284 21.2781 27.0288 23.3777 27.0288 25.9586C27.0288 28.5394 29.1284 30.639 31.7093 30.639ZM17.6678 23.6185C17.6678 24.9088 18.7177 25.9586 20.0082 25.9586C21.2985 25.9586 22.3483 24.9088 22.3483 23.6185C22.3483 22.3279 21.2985 21.2781 20.0082 21.2781C18.7177 21.2781 17.6678 22.3279 17.6678 23.6185ZM8.30688 28.299C7.0166 28.299 5.9668 27.2491 5.9668 25.9586C5.9668 24.6683 7.0166 23.6185 8.30688 23.6185C9.59747 23.6185 10.6473 24.6683 10.6473 25.9586C10.6473 27.2491 9.59747 28.299 8.30688 28.299ZM29.3692 25.9586C29.3692 27.2491 30.419 28.299 31.7093 28.299C32.9999 28.299 34.0497 27.2491 34.0497 25.9586C34.0497 24.6683 32.9999 23.6185 31.7093 23.6185C30.419 23.6185 29.3692 24.6683 29.3692 25.9586ZM2.49756 37.6599C3.0484 34.9927 5.44403 32.9794 8.30688 32.9794C9.71832 32.9794 11.0406 33.4702 12.0956 34.3716C11.9144 35.0476 11.8173 35.7574 11.8173 36.4896V37.6599H2.49756ZM14.1577 36.4896V37.6599H25.8588V36.4896C25.8588 33.2635 23.2343 30.639 20.0082 30.639C16.7822 30.639 14.1577 33.2635 14.1577 36.4896ZM28.1989 37.6599V36.4896C28.1989 35.7574 28.1018 35.0476 27.9208 34.3716C28.9758 33.4702 30.2982 32.9794 31.7093 32.9794C34.5724 32.9794 36.9678 34.9927 37.5189 37.6599H28.1989Z"/>
	</symbol>
	<symbol id="stopwatch" viewBox="0 0 34 48">
		<path fill-rule="evenodd" clip-rule="evenodd" d="M30.0732 16.3333L27.963 18.4435C31.4193 21.5228 33.6 26.0045 33.6 30.9867C33.6 40.2502 26.0635 47.7867 16.8 47.7867C7.53648 47.7867 0 40.2502 0 30.9867C0 26.0045 2.18073 21.5228 5.63696 18.4435L3.52679 16.3333L2.5368 17.3233L0.55692 15.3434L4.51677 11.3836L6.49665 13.3635L5.50667 14.3535L7.89843 16.7452C9.33511 15.844 10.9165 15.1531 12.6 14.7182V11.8533C12.6 11.7505 12.605 11.6489 12.6123 11.5479C11.1319 10.3131 10.2667 8.48829 10.2667 6.53333C10.2667 2.93085 13.1974 0 16.8 0C20.4026 0 23.3333 2.93085 23.3333 6.53333C23.3333 8.49912 22.4704 10.3159 20.9877 11.549C20.995 11.6496 20.9999 11.7509 20.9999 11.8533V14.7183C22.6835 15.1531 24.2648 15.8441 25.7015 16.7453L28.0933 14.3535L27.1033 13.3635L29.0832 11.3836L33.0431 15.3434L31.0632 17.3233L30.0732 16.3333ZM20.5333 6.53333C20.5333 4.47477 18.8586 2.8 16.8 2.8C14.7414 2.8 13.0667 4.47477 13.0667 6.53333C13.0667 7.38724 13.3564 8.19747 13.8706 8.84753C14.6279 8.10936 15.6614 7.65333 16.8 7.65333C17.9389 7.65333 18.9725 8.10955 19.7298 8.848C20.2439 8.19961 20.5333 7.39172 20.5333 6.53333ZM18.2 11.8533V14.2455C17.7382 14.2072 17.2715 14.1867 16.8 14.1867C16.3285 14.1867 15.8618 14.2072 15.4 14.2455V11.8533C15.4 11.0814 16.028 10.4533 16.8 10.4533C17.572 10.4533 18.2 11.0814 18.2 11.8533ZM2.8 30.9867C2.8 38.7063 9.0804 44.9867 16.8 44.9867C24.5196 44.9867 30.8 38.7063 30.8 30.9867C30.8 23.2671 24.5196 16.9867 16.8 16.9867C9.0804 16.9867 2.8 23.2671 2.8 30.9867ZM16.8 22.5867C17.5732 22.5867 18.2 21.9599 18.2 21.1867C18.2 20.4135 17.5732 19.7867 16.8 19.7867C16.0268 19.7867 15.4 20.4135 15.4 21.1867C15.4 21.9599 16.0268 22.5867 16.8 22.5867ZM18.2 40.7867C18.2 41.5599 17.5732 42.1867 16.8 42.1867C16.0268 42.1867 15.4 41.5599 15.4 40.7867C15.4 40.0135 16.0268 39.3867 16.8 39.3867C17.5732 39.3867 18.2 40.0135 18.2 40.7867ZM26.6 32.3867C27.3732 32.3867 28 31.7599 28 30.9867C28 30.2135 27.3732 29.5867 26.6 29.5867C25.8268 29.5867 25.2 30.2135 25.2 30.9867C25.2 31.7599 25.8268 32.3867 26.6 32.3867ZM8.4 30.9867C8.4 31.7599 7.7732 32.3867 7 32.3867C6.2268 32.3867 5.6 31.7599 5.6 30.9867C5.6 30.2135 6.2268 29.5867 7 29.5867C7.7732 29.5867 8.4 30.2135 8.4 30.9867ZM9.87047 39.317C10.6437 39.317 11.2705 38.6902 11.2705 37.917C11.2705 37.1438 10.6437 36.517 9.87047 36.517C9.09727 36.517 8.47047 37.1438 8.47047 37.917C8.47047 38.6902 9.09727 39.317 9.87047 39.317ZM25.1299 37.9167C25.1299 38.6899 24.5031 39.3167 23.7299 39.3167C22.9567 39.3167 22.3299 38.6899 22.3299 37.9167C22.3299 37.1435 22.9567 36.5167 23.7299 36.5167C24.5031 36.5167 25.1299 37.1435 25.1299 37.9167ZM9.87 25.4567C10.6432 25.4567 11.27 24.8299 11.27 24.0567C11.27 23.2835 10.6432 22.6567 9.87 22.6567C9.0968 22.6567 8.47 23.2835 8.47 24.0567C8.47 24.8299 9.0968 25.4567 9.87 25.4567ZM23.7429 22.0627L15.8096 29.9961L17.7895 31.9759L25.7228 24.0426L23.7429 22.0627Z"/>
	</symbol>
	<symbol id="square" viewBox="0 0 24 22">
		<path fill-rule="evenodd" clip-rule="evenodd" d="M2.78119 0H24V1.40625H2.78119V0ZM17.8438 21.8906H2.78119V2.8103H24V17.8907H17.8438V21.8906ZM22.5938 4.21655H4.18744V20.4844H16.4376V16.4844H22.5938V4.21655ZM1.40625 2.8103H0V21.8906H1.40625V2.8103ZM12.887 8.47516L10.8576 11.8848L8.77347 8.47516H7V14.8739H8.96545V12.0583L10.3549 14.2979H11.3055L12.695 11.9578L12.7132 14.8739H14.6786L14.6602 8.47516H12.887ZM18.7458 9.20657C18.7458 9.57214 18.6087 9.89212 18.0146 10.4131L17.5117 10.843H18.8647V11.8848H15.5191V11.0531L16.9726 9.80972C17.2467 9.58121 17.3016 9.43509 17.3016 9.31616C17.3016 9.17004 17.192 9.06018 16.936 9.06018C16.6526 9.06018 16.4422 9.18817 16.3235 9.40762L15.2631 8.90472C15.5281 8.3837 16.1225 8 17.064 8C18.0695 8 18.7458 8.46609 18.7458 9.20657Z"/>
	</symbol>
	<symbol id="size" viewBox="0 0 24 22">
		<path fill-rule="evenodd" clip-rule="evenodd" d="M24 0H2.78119V1.40625H24V0ZM2.78119 21.8906H24V2.8103H2.78119V21.8906ZM4.18744 4.21655H22.5938V20.4844H4.18744V4.21655ZM0 2.8103H1.40625V21.8906H0V2.8103ZM13.0576 12.6181L15.087 9.20849H16.8602L16.8786 15.6072H14.9132L14.895 12.6912L13.5055 15.0312H12.5549L11.1655 12.7917V15.6072H9.2V9.20849H10.9735L13.0576 12.6181Z"/>
	</symbol>
	<symbol id="refresh" viewBox="0 0 18 18">
		<path d="M17.874 7.93367C17.8132 7.568 17.4546 7.31889 17.0732 7.37723C16.6918 7.43557 16.4319 7.77932 16.4928 8.14498C16.4934 8.14899 16.4941 8.15296 16.4949 8.15693C17.2071 12.1762 14.3858 15.988 10.1933 16.6708C6.00085 17.3536 2.02487 14.6488 1.31268 10.6295C0.600493 6.61015 3.42184 2.79837 7.61426 2.11559C10.1925 1.69571 12.8169 2.55912 14.5829 4.40832L11.4848 5.39792C11.1183 5.51483 10.92 5.89441 11.042 6.24577C11.042 6.24585 11.042 6.24597 11.0421 6.24605C11.164 6.59742 11.56 6.78744 11.9265 6.67057C11.9266 6.67053 11.9267 6.67049 11.9267 6.67049L16.1228 5.32956C16.4085 5.23834 16.6013 4.98201 16.6012 4.6933V0.670482C16.6012 0.300179 16.2881 0 15.9019 0C15.5156 0 15.2025 0.300179 15.2025 0.670482V3.11969C11.6009 -0.164409 5.90422 -0.0275784 2.47866 3.42529C-0.946903 6.87815 -0.804219 12.3396 2.79743 15.6237C6.39907 18.9078 12.0957 18.771 15.5213 15.3181C17.4747 13.3491 18.3464 10.613 17.874 7.93367Z"/>
	</symbol>
	<symbol id="sketch" viewBox="0 0 50 45">
		<path fill-rule="evenodd" clip-rule="evenodd" d="M47.0703 3.90625H9.66738C9.21367 1.68018 7.24082 0 4.88281 0C2.19043 0 0 2.19043 0 4.88281V40.0391C0 40.3082 0.0223633 40.5818 0.0664062 40.8521C0.444043 43.1723 2.60449 44.9219 5.0918 44.9219H45.1172C46.7326 44.9219 48.0469 43.6076 48.0469 41.9922V40.8477C49.1835 40.4445 50 39.3591 50 38.0859V6.83594C50 5.22051 48.6857 3.90625 47.0703 3.90625ZM1.95312 4.88281C1.95312 3.26738 3.26738 1.95312 4.88281 1.95312C6.49824 1.95312 7.8125 3.26738 7.8125 4.88281V36.1354C6.9958 35.521 5.98115 35.1562 4.88281 35.1562C3.78447 35.1562 2.76982 35.521 1.95312 36.1354V4.88281ZM45.1172 42.9688C45.6557 42.9688 46.0938 42.5307 46.0938 41.9922V41.0156H40.918H33.1055H24.707H16.8945H8.78906C8.24971 41.0156 7.8125 40.5783 7.8125 40.0391C7.8125 38.4236 6.49824 37.1094 4.88281 37.1094C3.26738 37.1094 1.95312 38.4236 1.95312 40.0391C1.95312 40.2033 1.96689 40.3713 1.99414 40.5383C2.21963 41.9239 3.55137 42.9688 5.0918 42.9688H45.1172ZM20.8008 27.0056C21.8067 27.0056 22.8122 26.7726 23.7305 26.3098V39.0625H17.8711V26.3098C18.7894 26.7726 19.7948 27.0056 20.8008 27.0056ZM20.8008 18.7852L18.1072 24.1724C19.7031 25.347 21.8984 25.347 23.4943 24.1724L20.8008 18.7852ZM38.9648 21.4844H39.9414V23.4375H37.0117C36.4724 23.4375 36.0352 23.8748 36.0352 24.4141C36.0352 24.9533 36.4724 25.3906 37.0117 25.3906H39.9414V27.3438H38.9648C38.4255 27.3438 37.9883 27.7811 37.9883 28.3203C37.9883 28.8596 38.4255 29.2969 38.9648 29.2969H39.9414V31.25H37.0117C36.4724 31.25 36.0352 31.6873 36.0352 32.2266C36.0352 32.7658 36.4724 33.2031 37.0117 33.2031H39.9414V35.1562H38.9648C38.4255 35.1562 37.9883 35.5936 37.9883 36.1328C37.9883 36.6721 38.4255 37.1094 38.9648 37.1094H39.9414V39.0625H34.082V17.5781H39.9414V19.5312H38.9648C38.4255 19.5312 37.9883 19.9686 37.9883 20.5078C37.9883 21.0471 38.4255 21.4844 38.9648 21.4844ZM41.8945 39.0625H47.0703C47.6088 39.0625 48.0469 38.6244 48.0469 38.0859H48.0468V6.83594C48.0468 6.29746 47.6087 5.85938 47.0702 5.85938H9.76553V39.0625H15.9179V24.4146C15.9179 24.3793 15.9202 24.3441 15.924 24.309C15.9247 24.3029 15.9256 24.2968 15.9266 24.2907L15.9266 24.2907L15.9283 24.279C15.9318 24.2538 15.936 24.2289 15.9415 24.204L15.9442 24.1925L15.9494 24.1716C15.9557 24.1471 15.9629 24.1229 15.9711 24.0989L15.9768 24.0822L15.9812 24.0701C15.9911 24.0437 16.0024 24.0176 16.0147 23.9919L16.0165 23.9879C16.018 23.9844 16.0193 23.9808 16.021 23.9773L16.028 23.9634L16.0305 23.9585L19.9273 16.1648C20.0928 15.834 20.4309 15.625 20.8008 15.625C21.1707 15.625 21.5088 15.834 21.6741 16.1647L25.571 23.9584L25.5734 23.9633L25.5805 23.9772C25.5817 23.9798 25.5828 23.9824 25.5839 23.9851L25.5839 23.9851L25.5867 23.9918C25.599 24.0175 25.6104 24.0436 25.6203 24.07C25.623 24.0771 25.6254 24.0843 25.6279 24.0914L25.6279 24.0915L25.6279 24.0916L25.6304 24.0988C25.6386 24.1229 25.6458 24.1471 25.6521 24.1715C25.6548 24.1823 25.6575 24.1931 25.66 24.2039C25.6654 24.2288 25.6696 24.2538 25.6731 24.2789C25.6745 24.2889 25.6764 24.2988 25.6774 24.3089C25.6812 24.344 25.6836 24.3793 25.6836 24.4146V39.0625H32.1289V16.6016C32.1289 16.0623 32.5661 15.625 33.1055 15.625H40.918C41.4573 15.625 41.8945 16.0623 41.8945 16.6016V39.0625ZM40.918 9.76562C40.3789 9.76562 39.9414 10.2031 39.9414 10.7422C39.9414 11.2812 40.3789 11.7188 40.918 11.7188C41.457 11.7188 41.8945 11.2812 41.8945 10.7422C41.8945 10.2031 41.457 9.76562 40.918 9.76562ZM16.8945 9.76562H37.0117C37.5511 9.76562 37.9883 10.2029 37.9883 10.7422C37.9883 11.2814 37.5511 11.7188 37.0117 11.7188H16.8945C16.3552 11.7188 15.918 11.2814 15.918 10.7422C15.918 10.2029 16.3552 9.76562 16.8945 9.76562Z"/>
	</symbol>
	<symbol id="send" viewBox="0 0 22 22">
		<path fill-rule="evenodd" clip-rule="evenodd" d="M20.9944 0.0779979C21.2236 -0.0420854 21.5004 -0.0219188 21.7112 0.127498C21.9221 0.277831 22.0302 0.532665 21.9926 0.789331L19.4718 17.7477C19.4416 17.9484 19.3233 18.1272 19.1491 18.2335C19.0401 18.2995 18.9163 18.3334 18.7916 18.3334C18.7165 18.3334 18.6413 18.3206 18.5698 18.2967L8.9604 15.0123L18.4094 3.62825L6.19848 14.0691L0.46473 12.1092C0.205313 12.0203 0.0228964 11.7857 0.00181307 11.5107C-0.0183536 11.2366 0.125563 10.9762 0.369396 10.8488L20.9944 0.0779979ZM8.02081 20.3959V16.1444L11.7489 17.4186L9.26198 20.8029C9.12998 20.9826 8.92281 21.0834 8.70831 21.0834C8.63681 21.0834 8.5644 21.0724 8.49381 21.0495C8.21148 20.956 8.02081 20.6929 8.02081 20.3959Z"/>
	</symbol>
	<symbol id="paperclip" viewBox="0 0 20 22">
		<path d="M19.7222 7.73714C19.3756 7.39236 18.8151 7.3939 18.4703 7.7405L7.82935 18.439C6.44881 19.8196 4.20661 19.8196 2.82349 18.4372C1.44142 17.0544 1.44142 14.8122 2.82366 13.43L13.7796 2.41643C14.6415 1.55456 16.0428 1.55456 16.9072 2.4183C17.7714 3.28245 17.7714 4.68357 16.907 5.54797L7.831 14.6239C7.83042 14.6245 7.82993 14.6251 7.82935 14.6257C7.48358 14.9696 6.92478 14.9691 6.57972 14.6241C6.23408 14.2784 6.23408 13.7182 6.57972 13.3726L10.9606 8.99075C11.3063 8.64502 11.3062 8.08452 10.9605 7.73888C10.6148 7.39324 10.0543 7.39328 9.70864 7.739L5.32777 12.1207C4.2908 13.1577 4.2908 14.8389 5.32785 15.8759C6.36486 16.9129 8.04603 16.9129 9.08308 15.8759C9.08428 15.8747 9.08524 15.8734 9.0864 15.8722L18.1588 6.79975C19.7146 5.24398 19.7146 2.72191 18.1588 1.16614C16.6029 -0.388714 14.081 -0.388714 12.5261 1.16614L1.57013 12.1798C-0.501817 14.2517 -0.501817 17.6146 1.57163 19.689C3.64644 21.7628 7.00935 21.7628 9.08291 19.6892L19.7256 8.989C20.0703 8.64237 20.0688 8.08191 19.7222 7.73714Z"/>
	</symbol>
	<symbol id="pin" viewBox="0 0 20 24">
		<path fill-rule="evenodd" clip-rule="evenodd" d="M17.7164 4.17286C15.8842 1.52114 12.9805 0 9.75026 0C6.52006 0 3.61629 1.52114 1.78409 4.17286C-0.0391135 6.81117 -0.460098 10.1513 0.655715 13.1024C0.954168 13.9082 1.42859 14.6912 2.06243 15.4249L9.1114 23.7046C9.27082 23.892 9.5044 24 9.75026 24C9.99612 24 10.2297 23.892 10.3891 23.7046L17.4361 15.4271C18.0728 14.6892 18.5466 13.9071 18.8426 13.1077C19.9606 10.1513 19.5396 6.81117 17.7164 4.17286ZM17.2711 12.52C17.0429 13.1368 16.6703 13.7466 16.1643 14.3331C16.1636 14.3337 16.163 14.3344 16.1624 14.3351C16.1616 14.3359 16.1609 14.3367 16.1603 14.3376L9.75026 21.8666L3.33626 14.3329C2.83053 13.7468 2.45792 13.1371 2.22743 12.5144C1.30465 10.0739 1.65486 7.31217 3.16451 5.12728C4.6789 2.93541 7.07946 1.67831 9.75026 1.67831C12.421 1.67831 14.8213 2.93536 16.3357 5.12728C17.8457 7.31217 18.1962 10.0739 17.2711 12.52ZM9.75026 4.97902C7.1592 4.97902 5.05095 7.08698 5.05095 9.67833C5.05095 12.2697 7.15892 14.3776 9.75026 14.3776C12.3416 14.3776 14.4496 12.2697 14.4496 9.67833C14.4496 7.08727 12.3413 4.97902 9.75026 4.97902ZM9.75026 12.6993C8.08451 12.6993 6.72926 11.344 6.72926 9.67828C6.72926 8.01253 8.08451 6.65728 9.75026 6.65728C11.416 6.65728 12.7713 8.01253 12.7713 9.67828C12.7713 11.344 11.416 12.6993 9.75026 12.6993Z"/>
	</symbol>
	<symbol id="team" viewBox="0 0 38 40">
		<path fill-rule="evenodd" clip-rule="evenodd" d="M37.5 4.6875C37.5 2.10266 35.3973 0 32.8125 0C30.2277 0 28.125 2.10266 28.125 4.6875C28.125 7.27234 30.2277 9.375 32.8125 9.375C30.5402 9.375 28.6407 11.0007 28.2147 13.15C27.4149 13.8397 26.5436 14.4272 25.6195 14.9054C24.9301 11.7471 22.1121 9.375 18.75 9.375C21.3348 9.375 23.4375 7.27234 23.4375 4.6875C23.4375 2.10266 21.3348 0 18.75 0C16.1652 0 14.0625 2.10266 14.0625 4.6875C14.0625 7.27234 16.1652 9.375 18.75 9.375C15.5161 9.375 12.7728 11.5857 11.9623 14.5746C10.4315 13.6776 9.37881 12.6133 9.08311 12.3143L9.08306 12.3142L9.08292 12.3141C9.04413 12.2749 9.01839 12.2489 9.00635 12.2382C8.2782 10.5145 6.57715 9.375 4.6875 9.375C7.27234 9.375 9.375 7.27234 9.375 4.6875C9.375 2.10266 7.27234 0 4.6875 0C2.10266 0 0 2.10266 0 4.6875C0 7.27234 2.10266 9.375 4.6875 9.375C2.10266 9.375 0 11.4777 0 14.0625V40H9.375V21.1774C10.1352 21.5692 10.918 21.911 11.7188 22.2028V28.125H14.0625V40H23.4375V28.125H25.7812V22.4374C26.5805 22.1783 27.3636 21.8704 28.125 21.514V40H37.5V14.0625C37.5 11.4777 35.3973 9.375 32.8125 9.375C35.3973 9.375 37.5 7.27234 37.5 4.6875ZM32.8125 7.03125C31.5201 7.03125 30.4688 5.97992 30.4688 4.6875C30.4688 3.39508 31.5201 2.34375 32.8125 2.34375C34.1049 2.34375 35.1562 3.39508 35.1562 4.6875C35.1562 5.97992 34.1049 7.03125 32.8125 7.03125ZM23.4375 23.0463V25.7812H21.0938V37.6562H16.4062V25.7812H14.0625V22.9001C15.4312 23.2193 16.8384 23.3981 18.2648 23.4314V23.4375C18.4114 23.4325 18.6 23.4341 18.8282 23.4361H18.8283H18.8284H18.8284H18.8285H18.8285H18.8286C19.7605 23.4442 21.352 23.4581 23.4375 23.0463ZM22.2656 19.9219C22.2656 20.2594 22.2168 20.5856 22.1274 20.8951C24.2328 20.5826 26.2643 19.9048 28.125 18.8882V16.1502C26.2701 17.3734 24.1803 18.1885 21.9843 18.5449C22.1652 18.9679 22.2656 19.4333 22.2656 19.9219ZM30.4688 14.0625C30.4688 12.7701 31.5201 11.7188 32.8125 11.7188C34.1049 11.7188 35.1562 12.7701 35.1562 14.0625V37.6562H30.4688V14.0625ZM23.3987 15.813C23.1061 13.5074 21.1337 11.7188 18.75 11.7188C16.4481 11.7188 14.52 13.3987 14.1339 15.5966C15.5936 16.1282 17.1506 16.4062 18.75 16.4062C18.8119 16.4025 18.9114 16.4038 19.0448 16.4054H19.0448C19.7446 16.414 21.3764 16.434 23.3987 15.813ZM2.34375 14.0625C2.34375 12.7701 3.39508 11.7188 4.6875 11.7188C5.68024 11.7188 6.56891 12.3471 6.8988 13.2825L6.987 13.5333C7.01835 13.555 7.08918 13.6284 7.19935 13.7427L7.19938 13.7427C8.14983 14.7283 12.0281 18.75 18.75 18.75C19.3961 18.75 19.9219 19.2758 19.9219 19.9219C19.9219 20.5679 19.3961 21.0938 18.75 21.0938C13.0694 21.0938 9.41618 18.582 7.7733 17.4524L7.77326 17.4524L7.77325 17.4524L7.77311 17.4523C7.4463 17.2276 7.19906 17.0576 7.03125 16.973V37.6562H2.34375V14.0625ZM2.34375 4.6875C2.34375 5.97992 3.39508 7.03125 4.6875 7.03125C5.97992 7.03125 7.03125 5.97992 7.03125 4.6875C7.03125 3.39508 5.97992 2.34375 4.6875 2.34375C3.39508 2.34375 2.34375 3.39508 2.34375 4.6875ZM18.75 7.03125C17.4576 7.03125 16.4062 5.97992 16.4062 4.6875C16.4062 3.39508 17.4576 2.34375 18.75 2.34375C20.0424 2.34375 21.0938 3.39508 21.0938 4.6875C21.0938 5.97992 20.0424 7.03125 18.75 7.03125Z"/>
	</symbol>
	<symbol id="wood" viewBox="0 0 41 40">
		<path fill-rule="evenodd" clip-rule="evenodd" d="M40.1569 20C40.1569 17.3686 38.7857 15.0515 36.7205 13.7255C38.7857 12.3995 40.1569 10.0824 40.1569 7.45098C40.1569 3.34251 36.8144 0 32.7059 0H7.45098C3.34251 0 0 3.34251 0 7.45098C0 10.0824 1.37114 12.3995 3.43639 13.7255C1.37114 15.0515 0 17.3686 0 20C0 22.6314 1.37114 24.9485 3.43639 26.2745C1.37114 27.6005 0 29.9176 0 32.549C0 36.6575 3.34251 40 7.45098 40H32.7059C36.8144 40 40.1569 36.6575 40.1569 32.549C40.1569 29.9176 38.7857 27.6005 36.7205 26.2745C38.7857 24.9485 40.1569 22.6314 40.1569 20ZM14.8088 6.27451C14.5693 4.77082 13.8783 3.41576 12.8795 2.35294H32.7059C35.1119 2.35294 37.1327 4.02894 37.6654 6.27451H21.9608V8.62745H37.6654C37.1327 10.873 35.112 12.549 32.7059 12.549H12.8795C13.8783 11.4862 14.5693 10.1311 14.8088 8.62745H19.6078V6.27451H14.8088ZM2.35294 32.549C2.35294 35.3601 4.63992 37.6471 7.45098 37.6471C10.262 37.6471 12.549 35.3601 12.549 32.549C12.549 29.738 10.262 27.451 7.45098 27.451C4.63992 27.451 2.35294 29.738 2.35294 32.549ZM7.45098 25.098C4.63992 25.098 2.35294 22.8111 2.35294 20C2.35294 17.1889 4.63992 14.902 7.45098 14.902C10.262 14.902 12.549 17.1889 12.549 20C12.549 22.8111 10.262 25.098 7.45098 25.098ZM2.35294 7.45098C2.35294 10.262 4.63992 12.549 7.45098 12.549C10.262 12.549 12.549 10.262 12.549 7.45098C12.549 4.63992 10.262 2.35294 7.45098 2.35294C4.63992 2.35294 2.35294 4.63992 2.35294 7.45098ZM37.6654 31.3725H21.9608V33.7255H37.6654C37.1327 35.9711 35.112 37.6471 32.7059 37.6471H12.8795C13.8783 36.5842 14.5693 35.2292 14.8088 33.7255H19.6078V31.3725H14.8088C14.5693 29.8689 13.8783 28.5138 12.8795 27.451H32.7059C35.1119 27.451 37.1327 29.127 37.6654 31.3725ZM32.7059 25.098C35.112 25.098 37.1327 23.422 37.6654 21.1765H33.098V18.8235H37.6654C37.1327 16.578 35.1119 14.902 32.7059 14.902H12.8795C13.8783 15.9648 14.5693 17.3198 14.8088 18.8235H30.7451V21.1765H14.8088C14.5693 22.6802 13.8783 24.0352 12.8795 25.098H32.7059Z"/>
	</symbol>
	<symbol id="wallet" viewBox="0 0 39 40">
		<path fill-rule="evenodd" clip-rule="evenodd" d="M23.4706 0L35.7445 12.2738H38.5264V19.4289V32.8448V40H0.0674438V12.2738H6.71752L9.61697 0.297109L20.5313 2.93945L23.4706 0ZM31.9499 12.2737L23.4706 3.79461L14.9914 12.2737H31.9499ZM11.5935 3.53633L18.3086 5.16195L11.1969 12.2738H9.47822L11.5935 3.53633ZM24.6632 30.1616H35.8431V22.1121H24.6632C22.444 22.1121 20.6385 23.9176 20.6385 26.1369C20.6385 28.3561 22.444 30.1616 24.6632 30.1616ZM35.8431 19.4289H24.6632C20.9645 19.4289 17.9553 22.4381 17.9553 26.1369C17.9553 29.8356 20.9645 32.8448 24.6632 32.8448H35.8431V37.3168H2.75057V14.957H35.8431V19.4289ZM26.4525 26.1369C26.4525 27.1248 25.6516 27.9257 24.6637 27.9257C23.6758 27.9257 22.8749 27.1248 22.8749 26.1369C22.8749 25.1489 23.6758 24.348 24.6637 24.348C25.6516 24.348 26.4525 25.1489 26.4525 26.1369Z"/>
	</symbol>
	<symbol id="document" viewBox="0 0 36 40">
		<path fill-rule="evenodd" clip-rule="evenodd" d="M0 35.3384V0H35.6769V40H4.16656V35.3384H0ZM6.51031 37.6562H33.3331H33.3334V2.34375H30.9152V29.668L24.9747 35.3384H6.51031V37.6562ZM2.34375 2.34375H5.3125V7.5C5.3125 9.43848 6.88965 11.0156 8.82812 11.0156C10.7666 11.0156 12.3438 9.43848 12.3438 7.5V5H10V7.5C10 8.14606 9.47418 8.67188 8.82812 8.67188C8.18207 8.67188 7.65625 8.14606 7.65625 7.5V2.34375H28.5715V26.3281H21.9049V32.9947H2.34375V2.34375ZM24.2484 28.6719V32.7917L28.5645 28.6719H24.2484ZM21.1719 6.32812H23.7909V8.67188H21.1719V6.32812ZM23.7909 13.8281H7.12433V16.1719H23.7909V13.8281ZM7.12433 18.8281H23.7909V21.1719H7.12433V18.8281ZM15.3384 25.4947H7.12433V27.8384H15.3384V25.4947Z"/>
	</symbol>
	<symbol id="color-circle" viewBox="0 0 60 60">
		<path fill-rule="evenodd" clip-rule="evenodd" d="M29.6706 59.3412C46.0572 59.3412 59.3412 46.0572 59.3412 29.6706C59.3412 13.284 46.0572 0 29.6706 0C13.284 0 0 13.284 0 29.6706C0 46.0572 13.284 59.3412 29.6706 59.3412Z" fill="white"/>
		<path d="M29.6705 2.28247V29.6707L48.9441 10.2156C43.9946 5.31229 37.1877 2.28247 29.6705 2.28247Z" fill="#5C9CED"/>
		<path d="M48.9441 10.2156L29.6705 29.6706H57.0588C57.0588 22.061 53.9536 15.1788 48.9441 10.2156Z" fill="#25B6D2"/>
		<path d="M29.6705 57.0589V29.6707L48.9441 49.1257C43.9946 54.0291 37.1877 57.0589 29.6705 57.0589Z" fill="#FB6E51"/>
		<path d="M48.9441 49.1257L29.6705 29.6707H57.0588C57.0588 37.2803 53.9536 44.1625 48.9441 49.1257Z" fill="#E04F5F"/>
		<path d="M29.6706 2.28247V29.6707L10.397 10.2156C15.3465 5.31229 22.1534 2.28247 29.6706 2.28247Z" fill="#25B6D2"/>
		<path d="M10.397 10.2156L29.6706 29.6706H2.28235C2.28235 22.061 5.38749 15.1788 10.397 10.2156Z" fill="#47CEAC"/>
		<path d="M29.6706 57.0589V29.6707L10.397 49.1257C15.3465 54.0291 22.1534 57.0589 29.6706 57.0589Z" fill="#FECD54"/>
		<path d="M10.397 49.1257L29.6706 29.6707H2.28235C2.28235 37.2803 5.38749 44.1625 10.397 49.1257Z" fill="#32BEA6"/>
	</symbol>
	<symbol id="down-arrow" viewBox="0 0 10 6">
		<path d="M9.85877 0.128536C9.69617 -0.0340564 9.43335 -0.0340564 9.27076 0.128536L4.99035 4.40893L0.709956 0.128536C0.547364 -0.0340564 0.284537 -0.0340564 0.121944 0.128536C-0.0406481 0.291129 -0.0406481 0.553955 0.121944 0.716548L4.69635 5.29095C4.77744 5.37204 4.88389 5.41281 4.99037 5.41281C5.09684 5.41281 5.20329 5.37204 5.28438 5.29095L9.85879 0.716548C10.0214 0.553955 10.0214 0.291129 9.85877 0.128536Z" fill="white"/>
	</symbol>
	<symbol id="close" viewBox="0 0 40 40">
		<path fill-rule="evenodd" clip-rule="evenodd" d="M21.9799 20L30.8894 11.0905L28.9095 9.11056L20 18.0201L11.0905 9.11056L9.11056 11.0905L18.0201 20L9.11056 28.9096L11.0905 30.8895L20 21.9799L28.9095 30.8895L30.8894 28.9096L21.9799 20Z"/>
	</symbol>
	<symbol id="vkontakte" viewBox="0 0 34 19">
		<path fill-rule="evenodd" clip-rule="evenodd" d="M33.9798 0L27.2198 10.2201L34.0003 17.9144H23.2852L19.8946 14.9648L19.8552 17.7108L19.0939 17.8882C19.0244 17.9043 18.1966 18.0903 16.9058 18.0903C15.5025 18.0903 13.5521 17.8705 11.4338 16.9746C9.06186 15.9715 6.96747 14.3271 5.209 12.0875C3.05495 9.34435 1.40543 5.69434 0.305832 1.23889L0 0H8.90544L9.00272 0.891037C9.33578 3.94028 10.6076 5.63908 11.6198 6.52934V1.99893H10.7762V0H19.8057V7.23491C19.9802 7.11584 20.1699 6.96721 20.3701 6.78226C21.9901 5.28448 22.9223 2.67519 23.4191 0.749924L23.6126 0H33.9798ZM17.8799 16.0454L17.9572 10.6302L24.0328 15.9152H29.5744L24.7083 10.3934L30.261 1.99893H25.1493C24.2969 4.93663 23.0775 7.0995 21.5193 8.43515C20.1478 9.61049 18.9865 9.70309 18.8586 9.70984L17.807 9.76483V1.99893H13.6187V9.75497L12.2836 9.27872C12.1064 9.21568 8.12906 7.73218 7.14049 1.99893H2.57324C3.58023 5.57942 4.97632 8.53217 6.73116 10.7889C8.26343 12.7596 10.0738 14.2068 12.1119 15.0906C14.5523 16.1487 16.7637 16.1448 17.8799 16.0454Z"/>
	</symbol>
	<symbol id="contact-book" viewBox="0 0 28 34">
		<path fill-rule="evenodd" clip-rule="evenodd" d="M20.0755 33.8113H7.92453C3.55494 33.8113 0 30.2564 0 25.8868V7.92453C0 3.55494 3.55494 0 7.92453 0H20.0755C24.4451 0 28 3.55494 28 7.92453V25.8868C28 30.2564 24.4451 33.8113 20.0755 33.8113ZM7.92453 2.64151C5.01147 2.64151 2.64151 5.01147 2.64151 7.92453V25.8868C2.64151 28.7998 5.01147 31.1698 7.92453 31.1698H20.0755C22.9885 31.1698 25.3585 28.7998 25.3585 25.8868V7.92453C25.3585 5.01147 22.9885 2.64151 20.0755 2.64151H7.92453ZM14.4477 18.8868C17.8422 18.8868 20.6038 21.6386 20.6038 25.021C20.6038 25.7504 20.0125 26.3417 19.283 26.3417C18.5536 26.3417 17.9623 25.7504 17.9623 25.021C17.9623 23.0951 16.3857 21.5283 14.4477 21.5283H13.5523C11.6144 21.5283 10.0377 23.0951 10.0377 25.021C10.0377 25.7504 9.44643 26.3417 8.71698 26.3417C7.98753 26.3417 7.39623 25.7504 7.39623 25.021C7.39623 21.6386 10.1578 18.8868 13.5523 18.8868H14.4477ZM14.1321 16.7075C11.5103 16.7075 9.37736 14.5746 9.37736 11.9528C9.37736 9.33107 11.5103 7.19811 14.1321 7.19811C16.7538 7.19811 18.8868 9.33107 18.8868 11.9528C18.8868 14.5746 16.7538 16.7075 14.1321 16.7075ZM12.0189 11.9528C12.0189 10.7876 12.9668 9.83962 14.1321 9.83962C15.2973 9.83962 16.2453 10.7876 16.2453 11.9528C16.2453 13.1181 15.2973 14.066 14.1321 14.066C12.9668 14.066 12.0189 13.1181 12.0189 11.9528Z"/>
	</symbol>
	<symbol id="information" viewBox="0 0 27 24">
		<path fill-rule="evenodd" clip-rule="evenodd" d="M25.7417 20.9751C25.1637 20.6861 24.5615 19.9404 24.0153 18.8463C25.501 17.3309 26.3379 15.2964 26.3485 13.1743C26.3485 8.97058 23.008 5.44893 18.5634 4.59206C16.8463 1.78621 13.5036 0 9.8807 0C4.43232 0 0 3.93993 0 8.78285C0.0104235 10.9048 0.847264 12.9392 2.33294 14.4544C1.78676 15.5487 1.18568 16.2933 0.607389 16.5839C0.152294 16.8117 -0.0866069 17.3224 0.0302127 17.8177C0.147032 18.313 0.588944 18.6631 1.09786 18.6635C3.16784 18.7039 5.21176 18.1967 7.02271 17.1932C7.27522 17.2605 7.52992 17.3154 7.78544 17.3634C9.46187 20.0976 12.725 21.9571 16.4678 21.9571C17.4327 21.9585 18.3936 21.8331 19.3258 21.5844C21.1367 22.5882 23.1806 23.0955 25.2507 23.055C25.7599 23.0551 26.2024 22.705 26.3194 22.2094C26.4364 21.7138 26.1972 21.2027 25.7417 20.9751ZM6.27479 15.0793C5.55168 15.5399 4.76233 15.8871 3.93417 16.1088C4.20877 15.6327 4.45315 15.1398 4.66589 14.633C4.85117 14.197 4.73587 13.6913 4.3799 13.3787C3.01705 12.2381 2.21946 10.5599 2.19571 8.78285C2.19571 5.15086 5.64325 2.19571 9.8807 2.19571C12.0141 2.17159 14.0748 2.96989 15.6351 4.42491C10.5754 4.80312 6.58713 8.58084 6.58713 13.1743C6.58722 13.7597 6.65277 14.3433 6.78255 14.9141C6.60223 14.9263 6.42775 14.983 6.27479 15.0793ZM19.1469 19.3494C19.4586 19.2497 19.7985 19.2941 20.074 19.4707V19.4705C20.797 19.9314 21.5864 20.2787 22.4146 20.5003C22.1402 20.0246 21.8957 19.5322 21.6827 19.0261C21.4967 18.5903 21.6114 18.0844 21.967 17.7713C23.3303 16.6304 24.1285 14.9518 24.1528 13.1743C24.1528 9.54229 20.7053 6.58713 16.4678 6.58713C12.2304 6.58713 8.78285 9.54229 8.78285 13.1743C8.78285 16.8062 12.2304 19.7614 16.4678 19.7614C17.3768 19.7634 18.2805 19.6244 19.1469 19.3494ZM17.5657 13.1743V17.5657H15.37V13.1743H17.5657ZM17.5657 10.9786C17.5657 11.5849 17.0742 12.0764 16.4678 12.0764C15.8615 12.0764 15.37 11.5849 15.37 10.9786C15.37 10.3722 15.8615 9.8807 16.4678 9.8807C17.0742 9.8807 17.5657 10.3722 17.5657 10.9786Z"/>
	</symbol>
	<symbol id="arrow-drop" viewBox="0 0 13 8">
		<path d="M7.13715 7.16029L12.3141 1.9832C12.434 1.86346 12.5 1.70362 12.5 1.53318C12.5 1.36275 12.434 1.2029 12.3141 1.08316L11.933 0.701906C11.6846 0.45382 11.2809 0.45382 11.0329 0.701906L6.68562 5.04924L2.33346 0.697083C2.21362 0.577343 2.05388 0.51123 1.88354 0.51123C1.71301 0.51123 1.55326 0.577343 1.43333 0.697083L1.05226 1.07834C0.932425 1.19817 0.866408 1.35792 0.866408 1.52836C0.866408 1.69879 0.932425 1.85864 1.05226 1.97838L6.23399 7.16029C6.3542 7.28032 6.51471 7.34624 6.68533 7.34586C6.85662 7.34624 7.01703 7.28032 7.13715 7.16029Z"/>
	</symbol>
	<symbol id="check" viewBox="0 0 21 17">
		<path d="M19.0632 0.0144043L6.15074 12.3119L1.93684 8.2987L0 10.1433L6.15074 16.0012L21 1.85905L19.0632 0.0144043Z"/>
	</symbol>
	<symbol id="measure-size" viewBox="0 0 34 34">
		<path fill-rule="evenodd" clip-rule="evenodd" d="M32.7273 33.8508H3.79253V31.9332H32.7273V33.8508ZM1.91761 30.0186H0V3.99998H1.91761V30.0186Z"/>
		<path fill-rule="evenodd" clip-rule="evenodd" d="M14.0065 29.4564H4.04561V17.9859H0.00817871L6.0378 11.6016V2.04837H12.0144V5.27345L16.9948 0L33.9815 17.9859H29.944V29.4564H19.9831V23.9624H14.0065V29.4564ZM10.0222 4.04055H8.02999V9.49224L10.0222 7.38285V4.04055ZM16.9948 2.90142L29.3597 15.9937H27.9519V27.4643H21.9753V21.9702H12.0144V27.4643H6.0378V15.9937H4.62992L16.9948 2.90142ZM17.2603 15.6495L20.0277 11H22.4457L22.4708 19.7255H19.7906L19.7659 15.7491L17.8711 18.9401H16.5749L14.6801 15.8862V19.7255H11.9999V11H14.4183L17.2603 15.6495Z"/>
	</symbol>
	<symbol id="measure-basement" viewBox="0 0 33 30">
		<path fill-rule="evenodd" clip-rule="evenodd" d="M32.7273 0H3.79253V1.91761H32.7273V0ZM3.79253 29.8509H32.7273V3.83223H3.79253V29.8509ZM5.71014 5.74984H30.8097V27.9332H5.71014V5.74984ZM0 3.83223H1.91761V29.8509H0V3.83223ZM17.8058 17.2065L20.5732 12.557H22.9912L23.0163 21.2826H20.3361L20.3114 17.3061L18.4166 20.4972H17.1204L15.2256 17.4432V21.2826H12.5455V12.557H14.9638L17.8058 17.2065Z"/>
	</symbol>
	<symbol id="measure-area" viewBox="0 0 33 30">
		<path fill-rule="evenodd" clip-rule="evenodd" d="M3.79253 0H32.7273V1.91761H3.79253V0ZM24.3325 29.8509H3.79253V3.83223H32.7273V24.3964H24.3325V29.8509ZM30.8097 5.74984H5.71014V27.9332H22.4149V22.4788H30.8097V5.74984ZM1.91761 3.83223H0V29.8509H1.91761V3.83223ZM17.5732 11.557L14.8058 16.2065L11.9638 11.557H9.54545V20.2826H12.2256V16.4432L14.1204 19.4972H15.4166L17.3114 16.3061L17.3361 20.2826H20.0163L19.9912 11.557H17.5732ZM25.5624 12.5544C25.5624 13.0529 25.3755 13.4893 24.5654 14.1997L23.8796 14.7859H25.7246V16.2065H21.1624V15.0724L23.1444 13.3769C23.5182 13.0653 23.5931 12.866 23.5931 12.7039C23.5931 12.5046 23.4437 12.3548 23.0946 12.3548C22.7081 12.3548 22.4212 12.5293 22.2594 12.8286L20.8133 12.1428C21.1747 11.4323 21.9852 10.9091 23.2691 10.9091C24.6403 10.9091 25.5624 11.5447 25.5624 12.5544Z"/>
	</symbol>
	<symbol id="measure-rooms" viewBox="0 0 33 30">
		<path fill-rule="evenodd" clip-rule="evenodd" d="M3.79253 0H32.7273V1.91761H3.79253V0ZM24.3325 29.8509H3.79253V23.8509V14.8509V12.8322V3.83223H24.33H32.7273V24.3964H24.3325V29.8509ZM22.4 5.74984H5.71014V12.8322H22.4V5.74984ZM24.33 5.74984H30.8097V22.4788H24.33V14.8509V12.8322V5.74984ZM5.71014 14.8509H22.4V21.9332H5.71014V14.8509ZM5.71014 27.9332V23.8509H22.4149V27.9332H5.71014ZM1.91761 3.83223H0V29.8509H1.91761V3.83223Z"/>
	</symbol>
	<symbol id="info-icon" viewBox="0 0 22 20">
		<path fill-rule="evenodd" clip-rule="evenodd" d="M21.4514 17.4792C20.9697 17.2384 20.4679 16.617 20.0128 15.7053C21.2508 14.4424 21.9482 12.747 21.9571 10.9786C21.9571 7.47548 19.1734 4.54078 15.4695 3.82671C14.0386 1.48851 11.253 0 8.23392 0C3.6936 0 0 3.28328 0 7.31904C0.00868627 9.08735 0.706054 10.7827 1.94412 12.0453C1.48897 12.9572 0.98807 13.5777 0.506157 13.8199C0.126912 14.0098 -0.0721724 14.4353 0.0251772 14.8481C0.122527 15.2609 0.490786 15.5526 0.91488 15.553C2.63987 15.5866 4.34313 15.1639 5.85226 14.3277C6.06268 14.3837 6.27493 14.4295 6.48787 14.4695C7.88489 16.748 10.6041 18.2976 13.7232 18.2976C14.5273 18.2987 15.328 18.1943 16.1049 17.987C17.6139 18.8235 19.3172 19.2462 21.0422 19.2125C21.4666 19.2126 21.8353 18.9208 21.9328 18.5078C22.0303 18.0948 21.831 17.669 21.4514 17.4792ZM5.229 12.5661C4.6264 12.9499 3.96861 13.2392 3.27847 13.424C3.5073 13.0273 3.71096 12.6165 3.88824 12.1942C4.04264 11.8309 3.94656 11.4095 3.64991 11.149C2.51421 10.1984 1.84955 8.79988 1.82976 7.31904C1.82976 4.29239 4.70271 1.82976 8.23392 1.82976C10.0117 1.80966 11.729 2.47491 13.0293 3.68742C8.81281 4.0026 5.48928 7.1507 5.48928 10.9786C5.48935 11.4664 5.54397 11.9527 5.65213 12.4284C5.50186 12.4386 5.35646 12.4859 5.229 12.5661ZM15.9557 16.1245C16.2155 16.0414 16.4988 16.0785 16.7283 16.2256V16.2254C17.3308 16.6095 17.9886 16.8989 18.6789 17.0835C18.4502 16.6872 18.2465 16.2769 18.0689 15.8551C17.9139 15.4919 18.0095 15.0703 18.3058 14.8094C19.4419 13.8587 20.1071 12.4598 20.1274 10.9786C20.1274 7.95191 17.2544 5.48928 13.7232 5.48928C10.192 5.48928 7.31904 7.95191 7.31904 10.9786C7.31904 14.0052 10.192 16.4678 13.7232 16.4678C14.4806 16.4695 15.2338 16.3537 15.9557 16.1245ZM14.6381 10.9786V14.6381H12.8083V10.9786H14.6381ZM14.6381 9.1488C14.6381 9.65407 14.2285 10.0637 13.7232 10.0637C13.2179 10.0637 12.8083 9.65407 12.8083 9.1488C12.8083 8.64352 13.2179 8.23392 13.7232 8.23392C14.2285 8.23392 14.6381 8.64352 14.6381 9.1488Z"/>
	</symbol>


</svg>